<svg id="billeder_udefr" data-name="billeder udefr" xmlns="http://www.w3.org/2000/svg" width="1600" height="900" viewBox="0 0 1600 900">
  <defs>
    <style>
      .cls-1 {
        fill: #e95c66;
      }

      .cls-2 {
        fill: #f29730;
      }

      .cls-3 {
        fill: #f19831;
      }

      .cls-4 {
        fill: #e86068;
      }

      .cls-5 {
        fill: #507d63;
      }

      .cls-6 {
        fill: #517d63;
      }

      .cls-7 {
        fill: #f19733;
      }

      .cls-8 {
        fill: #f09a37;
      }

      .cls-9 {
        fill: #ee9763;
      }

      .cls-10 {
        fill: #f7e4c8;
      }

      .cls-11 {
        fill: #52544e;
      }

      .cls-12 {
        fill: #df7245;
      }

      .cls-13 {
        fill: #5d64e8;
      }
    </style>
  </defs>
  <title>bird</title>
  <g>
    <path class="cls-1" d="M687.37,211.48c4.81,1,9.55.27,14.27-1.29a30.64,30.64,0,0,0,4.35-1.71c1.14-.57,1.07.1.81,1.46a90.47,90.47,0,0,1-7.89,23.75,73.59,73.59,0,0,1-7,11.34,2.33,2.33,0,0,0-.7,1.13,14.39,14.39,0,0,0-3.22,3.61c-.74.24-1.27,1.11-1.91,1.64-1,1-2.24,1.45-3.12,2.85-2.13,1.28-4.22,2.75-6.4,3.8-8.32,4-16.78,5.24-25.26,1.71-10-4.14-17.17-14.23-22.23-28.45a93.25,93.25,0,0,1-5.42-29.17c0-3.19-.19-6.43.1-9.56a64.62,64.62,0,0,1,1.91-10.78c2.18-7.46,5.64-12.57,10.66-14.45,5.9-2.21,11.32-.19,16.3,5.26,2.4,2.61,4.4,5.94,6.57,9a28,28,0,0,0,3,5.26,110.85,110.85,0,0,0,6.42,10.1c0,.11,0,.22,0,.33-1.33.89-2.72.11-4.07.41-2.86.07-5.57-1.59-8.62-2.34a30.69,30.69,0,0,0,2.88,6.39c1.13,1.71,2,3.75,3.19,5.43a47.38,47.38,0,0,0,7,8.27c3.09,2.76,6.34,4.25,9.89,4a8.88,8.88,0,0,0,2.37-.68c1.88-.69,3.36-2.41,4.62-4.57A17.64,17.64,0,0,1,687.37,211.48Zm-51.88-31.75c.31.92.8,1.85.22,2.9-.5.89-1,.53-1.6.08s-.52.49-.53,1c0,1.85.9,3.84,2,4.42s2.61-.18,3.23-1.58a6.79,6.79,0,0,0,0-5.36C638,179.49,636.89,179,635.49,179.73Z"/>
    <path class="cls-2" d="M687.37,211.48a17.64,17.64,0,0,0-1.47,2.72c-1.26,2.16-2.74,3.88-4.62,4.57a8.88,8.88,0,0,1-2.37.68c-3.55.24-6.8-1.25-9.89-4a47.38,47.38,0,0,1-7-8.27c-1.18-1.68-2.06-3.72-3.19-5.43a30.69,30.69,0,0,1-2.88-6.39c3.05.75,5.76,2.41,8.62,2.34l0,.36c1.63.73,3.29.2,4.93.33a3.92,3.92,0,0,0,3.14-.64c9.22-1.85,17.4-7.18,23.76-18.56.5-.9.67-.89,1.06.2a11,11,0,0,1-1.55,10.36,3.59,3.59,0,0,0-.71,3.34,12.31,12.31,0,0,1-2.57,10.27,10.73,10.73,0,0,1-2.56,2.15,3.55,3.55,0,0,0-1.72,2.76C688.1,209.39,687.47,210.23,687.37,211.48Z"/>
    <path class="cls-3" d="M668.58,197a110.85,110.85,0,0,1-6.42-10.1,28,28,0,0,1-3-5.26,70.5,70.5,0,0,0,8.29-15,69.38,69.38,0,0,0,4.82-19.38c.19-2,.43-2.19,1.47-1,1.89,2.11,2.65,5.79,1.82,9.43a4.5,4.5,0,0,0,.54,3.92c2.1,3.25,2.19,8.79.22,13.24a12.41,12.41,0,0,0-1.13,6.5c.58,7.85-1.68,14.39-5.69,17.67Z"/>
    <path class="cls-4" d="M708.52,207.07c1.3-1.6,2.68-3,3.9-4.82a34.42,34.42,0,0,0,5.41-14.68,31.49,31.49,0,0,1,1.46-6.23c1.27-3.46,2.87-5,4.6-4.23s3,3.91,3.11,7.46a19.2,19.2,0,0,1-2.74,10.53,15.14,15.14,0,0,1-2.18,2.83c-.19-.76-.33-1.57-.58-2.27-.44-1.21-1.76-2.13-2.31-1.47-1,1.16-2.19,1.92-2.76,3.78a16.48,16.48,0,0,1-4.29,7.29C711,206.29,709.88,207.3,708.52,207.07Z"/>
    <path class="cls-5" d="M687.94,249.77a14.39,14.39,0,0,1,3.22-3.61l12.72,11.11c1.64,1.43,1.9,2.82,1,5.45-.68,2-1.35,4-2,6-.5,1.42-1.19,2.39-2.28,1.93-.89-.37-1.38-2-1.2-3.84a10,10,0,0,1,3-6.44Z"/>
    <path class="cls-6" d="M682.91,254.26c.88-1.4,2.1-1.83,3.12-2.85l9.71,15c1.44,2.23,1.47,3.59.1,5.93-1,1.62-1.89,3.26-2.86,4.84-.87,1.43-1.85,1.69-2.6.8a4.88,4.88,0,0,1-.39-4.29,7.09,7.09,0,0,1,3.89-4.75Z"/>
    <path class="cls-7" d="M708.52,207.07c1.36.23,2.52-.78,3.62-1.81a16.48,16.48,0,0,0,4.29-7.29c.57-1.86,1.79-2.62,2.76-3.78.55-.66,1.87.26,2.31,1.47.25.7.39,1.51.58,2.27-.11,4.27-1.67,6.89-4,8.24a16.31,16.31,0,0,1-9.61,1.88c-.22,0-.45,0-.61-.35A.82.82,0,0,1,708.52,207.07Z"/>
    <path class="cls-8" d="M625.61,181.81a64.62,64.62,0,0,0-1.91,10.78c-.29,3.13-.08,6.37-.1,9.56a31.54,31.54,0,0,1-.1-4.66,2.47,2.47,0,0,0-.69-2.05c-1.47-1.37-2.9-2.86-4.35-4.31-.38-1-1.2-1.11-1.55-2.13H623l.07-.44-6-6.12A33.54,33.54,0,0,1,625.61,181.81Z"/>
    <path class="cls-9" d="M668.58,197h.9c-.07,1,.37.85.72.85.81,0,1.61,0,2.42-.06a3.92,3.92,0,0,1-3.14.64c-1.64-.13-3.3.4-4.93-.33,1.27,0,2.54,0,3.81,0,.35,0,.88.08.23-.75C668.59,197.17,668.58,197.06,668.58,197Z"/>
    <path class="cls-10" d="M616.91,189c.35,1,1.17,1.16,1.55,2.13-.83.16-1.56,0-1.87-1.54C616.48,189,616.68,189,616.91,189Z"/>
    <path class="cls-11" d="M635.49,179.73c1.4-.75,2.51-.24,3.3,1.46a6.79,6.79,0,0,1,0,5.36c-.62,1.4-2.17,2.16-3.23,1.58s-2-2.57-2-4.42c0-.51-.12-1.5.53-1s1.1.81,1.6-.08C636.29,181.58,635.8,180.65,635.49,179.73Z"/>
    <path class="cls-12" d="M668.59,197.28c.65.83.12.75-.23.75-1.27,0-2.54,0-3.81,0l0-.36C665.87,197.39,667.26,198.17,668.59,197.28Z"/>
  </g>
  <g>
    <path class="cls-13" d="M566.23,134.15c4.56,1.8,9.36,1.89,14.27,1.16a29.56,29.56,0,0,0,4.58-.94c1.23-.37,1,.28.56,1.58A91.08,91.08,0,0,1,573.81,158a72.7,72.7,0,0,1-8.89,10c-.31.29-.68.45-.88,1a14,14,0,0,0-3.79,3c-.77.11-1.44.87-2.17,1.28-1.17.83-2.45,1.05-3.55,2.28-2.32.9-4.64,2-7,2.65-8.88,2.51-17.42,2.3-25.18-2.62-9.11-5.79-14.49-17-17-31.83a93.1,93.1,0,0,1-.36-29.67c.56-3.14.91-6.37,1.73-9.4a64,64,0,0,1,3.72-10.3c3.42-7,7.7-11.42,13-12.42,6.19-1.17,11.18,1.75,15.17,8,1.91,3,3.31,6.62,4.94,10a27.77,27.77,0,0,0,2.07,5.7,110,110,0,0,0,4.6,11c0,.11,0,.22,0,.33-1.46.65-2.7-.35-4.09-.29-2.82-.42-5.21-2.52-8.09-3.78a30.65,30.65,0,0,0,1.75,6.79c.82,1.88,1.34,4,2.21,5.89a47.28,47.28,0,0,0,5.54,9.36c2.57,3.24,5.52,5.27,9.06,5.63a8.56,8.56,0,0,0,2.45-.26c2-.36,3.72-1.8,5.33-3.71A18.68,18.68,0,0,1,566.23,134.15ZM520.53,94c.15,1,.47,2-.28,2.9-.65.79-1.09.36-1.59-.19s-.6.39-.69.9c-.32,1.81.23,3.93,1.18,4.68s2.59.27,3.44-1a6.74,6.74,0,0,0,.94-5.28C523,94.2,522,93.51,520.53,94Z"/>
    <path class="cls-2" d="M566.23,134.15a18.68,18.68,0,0,0-1.92,2.43c-1.61,1.91-3.35,3.35-5.33,3.71a8.56,8.56,0,0,1-2.45.26c-3.54-.36-6.49-2.39-9.06-5.63a47.28,47.28,0,0,1-5.54-9.36c-.87-1.85-1.39-4-2.21-5.89a30.65,30.65,0,0,1-1.75-6.79c2.88,1.26,5.27,3.36,8.09,3.78,0,.12,0,.24,0,.36,1.47,1,3.2.76,4.8,1.17a3.9,3.9,0,0,0,3.2-.1c9.4-.25,18.37-4.11,26.57-14.23.65-.8.82-.76,1,.38a11,11,0,0,1-3.3,10,3.61,3.61,0,0,0-1.27,3.17,12.32,12.32,0,0,1-4.28,9.68,10.78,10.78,0,0,1-2.9,1.68,3.55,3.55,0,0,0-2.16,2.42C567.3,132.21,566.54,132.94,566.23,134.15Z"/>
    <path class="cls-3" d="M550.19,116.62a110,110,0,0,1-4.6-11,27.77,27.77,0,0,1-2.07-5.7,71.15,71.15,0,0,0,10.72-13.34,69.41,69.41,0,0,0,8-18.28c.54-2,.81-2.08,1.63-.77,1.5,2.4,1.62,6.16.19,9.6a4.5,4.5,0,0,0-.14,4c1.52,3.55.66,9-2,13.08a12.31,12.31,0,0,0-2.22,6.21c-.77,7.83-4.12,13.89-8.63,16.44Z"/>
    <path class="cls-4" d="M587.81,133.41c1.57-1.35,3.17-2.53,4.68-4.08a34.7,34.7,0,0,0,7.84-13.54,30.77,30.77,0,0,1,2.5-5.89c1.83-3.19,3.67-4.38,5.24-3.38s2.34,4.37,1.79,7.88a19.08,19.08,0,0,1-4.49,9.9,14.87,14.87,0,0,1-2.63,2.43c-.06-.79-.06-1.61-.19-2.34-.22-1.27-1.36-2.4-2-1.84-1.15,1-2.48,1.52-3.37,3.25a16.43,16.43,0,0,1-5.47,6.45C590.43,133.08,589.12,133.87,587.81,133.41Z"/>
    <path class="cls-5" d="M560.25,172a14,14,0,0,1,3.79-3l10.64,13.11c1.37,1.7,1.39,3.11.08,5.55-1,1.87-2,3.75-3,5.6-.73,1.32-1.58,2.16-2.57,1.52-.82-.52-1-2.17-.53-4a10,10,0,0,1,4.07-5.83Z"/>
    <path class="cls-6" d="M554.53,175.54c1.1-1.23,2.38-1.45,3.55-2.28l7,16.43c1,2.43.83,3.78-.92,5.85-1.21,1.43-2.41,2.89-3.64,4.29-1.11,1.25-2.12,1.34-2.7.33a4.85,4.85,0,0,1,.35-4.28,7,7,0,0,1,4.65-4C560,186.3,557.27,180.92,554.53,175.54Z"/>
    <path class="cls-7" d="M587.81,133.41c1.31.46,2.62-.33,3.88-1.16a16.43,16.43,0,0,0,5.47-6.45c.89-1.73,2.22-2.27,3.37-3.25.66-.56,1.8.57,2,1.84.13.73.13,1.55.19,2.34-.83,4.18-2.82,6.5-5.32,7.43a16.23,16.23,0,0,1-9.79.21c-.21-.05-.45-.06-.54-.44A.83.83,0,0,1,587.81,133.41Z"/>
    <path class="cls-8" d="M510.44,94.37a64,64,0,0,0-3.72,10.3c-.82,3-1.17,6.26-1.73,9.4a31.3,31.3,0,0,1,.7-4.61,2.49,2.49,0,0,0-.33-2.13c-1.22-1.61-2.38-3.33-3.56-5-.2-1-1-1.29-1.16-2.36l6,1,.14-.42-4.9-7.06A33.66,33.66,0,0,1,510.44,94.37Z"/>
    <path class="cls-9" d="M550.19,116.62l.89.16c-.23.94.22.9.57,1,.79.14,1.59.24,2.39.35a3.9,3.9,0,0,1-3.2.1c-1.6-.41-3.33-.18-4.8-1.17,1.25.21,2.5.43,3.75.63.35.06.85.23.36-.7C550.16,116.84,550.18,116.73,550.19,116.62Z"/>
    <path class="cls-10" d="M500.64,100c.17,1.07,1,1.34,1.16,2.36-.85,0-1.54-.24-1.58-1.83C500.21,99.91,500.41,100,500.64,100Z"/>
    <path class="cls-11" d="M520.53,94c1.51-.49,2.51.2,3,2a6.74,6.74,0,0,1-.94,5.28c-.85,1.27-2.5,1.75-3.44,1s-1.5-2.87-1.18-4.68c.09-.51.13-1.51.69-.9s.94,1,1.59.19C521,96,520.68,95,520.53,94Z"/>
    <path class="cls-12" d="M550.15,117c.49.93,0,.76-.36.7-1.25-.2-2.5-.42-3.75-.63,0-.12,0-.24,0-.36C547.45,116.6,548.69,117.6,550.15,117Z"/>
  </g>
</svg>
