<svg xmlns="http://www.w3.org/2000/svg" width="1050" height="1497" viewBox="0 0 1050 1497">
  <defs>
    <style>
      .cls-1, .cls-5 {
        fill: none;
      }

      .cls-2, .cls-4 {
        fill: #fb5b48;
      }

      .cls-10, .cls-2, .cls-3, .cls-6, .cls-7, .cls-8 {
        stroke: #000;
      }

      .cls-10, .cls-2, .cls-3, .cls-5, .cls-6, .cls-7, .cls-8 {
        stroke-miterlimit: 10;
      }

      .cls-3, .cls-6 {
        fill: #f2b67d;
      }

      .cls-5 {
        stroke: #f2b67d;
        stroke-width: 13px;
      }

      .cls-6 {
        stroke-width: 4px;
      }

      .cls-7 {
        fill: #070707;
      }

      .cls-8 {
        fill: #722304;
      }

      .cls-9 {
        fill: #8e4f36;
      }
    </style>
  </defs>
  <title>spritesheet_girl</title>
  <g id="fnise">
    <rect class="cls-1" x="700" y="997" width="350" height="500"/>
    <rect class="cls-1" y="997" width="350" height="500"/>
    <g>
      <g>
        <path class="cls-2" d="M874.21,1293.45l6.72,28.84c3,13.19,12.58,24.38,25.47,30l37.17,16.35"/>
        <path class="cls-3" d="M948.85,1368.81l-10.43-7.9a3.71,3.71,0,0,0-5.14.52h0a3.42,3.42,0,0,0,.69,4.93l10.43,7.9a3.7,3.7,0,0,0,5.13-.52h0A3.36,3.36,0,0,0,948.85,1368.81Z"/>
      </g>
      <g>
        <path class="cls-4" d="M870.24,1488.74h0a5.18,5.18,0,0,1-5.85,3.93l-25.44-4.6a4.63,4.63,0,0,1-3.61-5.68h0a5.18,5.18,0,0,1,5.85-3.93l25.44,4.6A4.7,4.7,0,0,1,870.24,1488.74Z"/>
        <polyline class="cls-3" points="827.39 1381.29 848.9 1418.41 846.35 1479.34"/>
      </g>
      <g>
        <path class="cls-4" d="M921.14,1487h0a4.84,4.84,0,0,1-4.64,5.1l-26.9,2a5,5,0,0,1-5.44-4.3h0a4.83,4.83,0,0,1,4.63-5.1l26.91-2A4.91,4.91,0,0,1,921.14,1487Z"/>
        <line class="cls-5" x1="874.69" y1="1390.7" x2="898.47" y2="1487.1"/>
      </g>
      <path class="cls-2" d="M821.72,1290.5h82.42s-7.36,106.8,7.35,111.8c0,0-136.92,20.4-132.69,44.7C778.9,1447,810.64,1403.8,821.72,1290.5Z"/>
      <path class="cls-3" d="M816.5,1290.4s-7.36-64.1,0-76c0,0-23.27-12.4-1.61-24.3,0,0,97.73-15.9,101.46-28.8,0,0,24.88,70.6-12.7,129.2H816.5Z"/>
      <path class="cls-6" d="M865.22,1219s-4.07,25.15,22.58,41.2"/>
      <path class="cls-3" d="M887.7,1214.5s17.93-12.9,13.7,0"/>
      <ellipse class="cls-7" cx="875.2" cy="1195.6" rx="10.58" ry="9.9"/>
      <ellipse class="cls-7" cx="902.51" cy="1183.12" rx="9.4" ry="9.97" transform="translate(-373.42 1948.84) rotate(-83.63)"/>
      <path class="cls-8" d="M823.22,1218s7.35,60.1,0,72c0,0-27,43.7-54.41,7.5,0,0-8.47-151.5,65-157.5,0,0,70.33-30.8,98.84,0,0,0,19.55,33.8-104.07,48.2C828.56,1188.2,800.55,1190.2,823.22,1218Z"/>
      <path class="cls-9" d="M912.28,1149.2s-9.87,10.6-17.63,12.2S912.28,1149.2,912.28,1149.2Z"/>
      <path class="cls-9" d="M897.47,1151.6s-23.07,17.4-41,20S897.47,1151.6,897.47,1151.6Z"/>
      <g>
        <path class="cls-2" d="M828.07,1301.17l-18.4,27.6c-8.66,13-9,29.28-1,41.72l23.22,36"/>
        <path class="cls-3" d="M827.12,1401.3l2.93,12.15a3.48,3.48,0,0,0,4.34,2.44h0a3.73,3.73,0,0,0,2.7-4.36l-2.94-12.15a3.47,3.47,0,0,0-4.33-2.44h0A3.72,3.72,0,0,0,827.12,1401.3Z"/>
      </g>
    </g>
    <g>
      <g>
        <path class="cls-2" d="M186.55,1336.93l49.67-46c23.36-21.6,33-44.61,24.69-58.86l-24-41.19"/>
        <path class="cls-3" d="M243.05,1196.24l1.13-15.87c.12-2.4-2.89-3.22-6.82-1.71h0c-3.92,1.52-7.33,4.79-7.46,7.18l-1.13,15.88c-.12,2.39,2.89,3.21,6.82,1.7h0C239.51,1201.9,242.92,1198.63,243.05,1196.24Z"/>
      </g>
      <g>
        <polyline class="cls-3" points="142.9 1357.82 173.5 1402.2 174.16 1483"/>
        <path class="cls-4" d="M206,1490.38h0a7.79,7.79,0,0,1-7.4,6.41l-33.6-.74c-3.36-.09-5.76-3-5.1-6.72h0a7.8,7.8,0,0,1,7.41-6.41l33.59.74C204.3,1483.75,206.61,1486.82,206,1490.38Z"/>
      </g>
      <g>
        <line class="cls-5" x1="180.48" y1="1360.58" x2="198.65" y2="1473"/>
        <path class="cls-4" d="M224.8,1475.08h0a5.56,5.56,0,0,1-5.84,5.38l-31.2-.32a5.8,5.8,0,0,1-5.86-5.44h0a5.56,5.56,0,0,1,5.83-5.38l31.21.32A5.68,5.68,0,0,1,224.8,1475.08Z"/>
      </g>
      <path class="cls-2" d="M131.64,1277.5h82.42s-7.35,106.8,7.36,111.8c0,0-136.93,20.4-132.7,44.7C88.82,1434,120.56,1390.8,131.64,1277.5Z"/>
      <path class="cls-3" d="M129,1277.86s-7.36-64.1,0-76c0,0-23.28-12.4-1.62-24.3,0,0,97.73-15.9,101.46-28.8,0,0,24.89,70.6-12.69,129.2H129Z"/>
      <path class="cls-3" d="M195.62,1201.86s17.94-12.9,13.71,0"/>
      <ellipse class="cls-7" cx="184.07" cy="1190.23" rx="9.43" ry="8.02"/>
      <ellipse class="cls-7" cx="211.71" cy="1180.21" rx="7.64" ry="8.91" transform="translate(-976.36 1342.13) rotate(-87.59)"/>
      <path class="cls-8" d="M131.14,1205.36s7.36,60.1,0,72c0,0-27,43.7-54.41,7.5,0,0-8.46-151.5,65-157.5,0,0,70.33-30.8,98.84,0,0,0,19.55,33.8-104.08,48.2C136.48,1175.56,108.47,1177.56,131.14,1205.36Z"/>
      <path class="cls-9" d="M220.21,1136.56s-9.88,10.6-17.63,12.2S220.21,1136.56,220.21,1136.56Z"/>
      <path class="cls-9" d="M205.4,1139s-23.08,17.4-41,20S205.4,1139,205.4,1139Z"/>
      <g>
        <path class="cls-2" d="M147.19,1290.52l-30.4,24.22c-14,11-21.52,23.59-20.46,33.57l3,28.8"/>
        <path class="cls-3" d="M102.35,1379.59l3.12-10.51c.53-1.61-1.14-2.51-3.73-1.94h0c-2.45.51-5,2.26-5.48,3.93l-3.12,10.52c-.53,1.61,1.14,2.51,3.73,1.94h0C99.46,1383,102,1381.2,102.35,1379.59Z"/>
      </g>
      <path class="cls-6" d="M160.5,1247.5s2,3,35-3"/>
    </g>
    <rect class="cls-1" x="350" y="997" width="350" height="500"/>
    <g>
      <g>
        <path class="cls-2" d="M468.64,1282l66.77,11c31.39,5.18,55.47-1.36,61.62-16.65l17.78-44.24"/>
        <path class="cls-3" d="M614.37,1240.17l13.23-8.85c2-1.38.76-4.26-2.84-6.43h0c-3.61-2.17-8.29-2.85-10.25-1.48l-13.22,8.86c-2,1.37-.77,4.25,2.84,6.42h0C607.73,1240.86,612.41,1241.54,614.37,1240.17Z"/>
      </g>
      <g>
        <polyline class="cls-3" points="477.9 1355.82 508.5 1400.2 509.16 1481"/>
        <path class="cls-4" d="M541,1488.38h0a7.79,7.79,0,0,1-7.4,6.41l-33.6-.74c-3.36-.09-5.76-3-5.1-6.72h0a7.8,7.8,0,0,1,7.41-6.41l33.59.74C539.3,1481.75,541.61,1484.82,541,1488.38Z"/>
      </g>
      <g>
        <line class="cls-5" x1="515.48" y1="1358.58" x2="533.65" y2="1471"/>
        <path class="cls-4" d="M559.8,1473.08h0a5.56,5.56,0,0,1-5.84,5.38l-31.2-.32a5.8,5.8,0,0,1-5.86-5.44h0a5.56,5.56,0,0,1,5.83-5.38l31.21.32A5.68,5.68,0,0,1,559.8,1473.08Z"/>
      </g>
      <path class="cls-2" d="M466.64,1275.5h82.42s-7.35,106.8,7.36,111.8c0,0-136.93,20.4-132.7,44.7C423.82,1432,455.56,1388.8,466.64,1275.5Z"/>
      <path class="cls-3" d="M464,1275.86s-7.36-64.1,0-76c0,0-23.28-12.4-1.62-24.3,0,0,97.73-15.9,101.46-28.8,0,0,24.89,70.6-12.69,129.2H464Z"/>
      <path class="cls-3" d="M530.62,1199.86s17.94-12.9,13.71,0"/>
      <ellipse class="cls-7" cx="519.07" cy="1188.23" rx="9.43" ry="8.02"/>
      <ellipse class="cls-7" cx="546.71" cy="1178.21" rx="7.64" ry="8.91" transform="translate(-653.44 1674.92) rotate(-87.59)"/>
      <path class="cls-8" d="M466.14,1203.36s7.36,60.1,0,72c0,0-27,43.7-54.41,7.5,0,0-8.46-151.5,65-157.5,0,0,70.33-30.8,98.84,0,0,0,19.55,33.8-104.08,48.2C471.48,1173.56,443.47,1175.56,466.14,1203.36Z"/>
      <path class="cls-9" d="M555.21,1134.56s-9.88,10.6-17.63,12.2S555.21,1134.56,555.21,1134.56Z"/>
      <path class="cls-9" d="M540.4,1137s-23.08,17.4-41,20S540.4,1137,540.4,1137Z"/>
      <g>
        <path class="cls-2" d="M482.19,1288.52l-30.4,24.22c-14,11-21.52,23.59-20.46,33.57l3,28.8"/>
        <path class="cls-3" d="M437.35,1377.59l3.12-10.51c.53-1.61-1.14-2.51-3.73-1.94h0c-2.45.51-5,2.26-5.48,3.93l-3.12,10.52c-.53,1.61,1.14,2.51,3.73,1.94h0C434.46,1381,437,1379.2,437.35,1377.59Z"/>
      </g>
      <path class="cls-6" d="M499.61,1228s.09,3.6,31.18,16.18"/>
    </g>
  </g>
  <g id="overveje">
    <rect class="cls-1" x="350" y="497" width="350" height="500"/>
    <g>
      <g>
        <path class="cls-2" d="M531.55,832.93l49.67-46c23.36-21.6,33-44.61,24.69-58.86l-24-41.19"/>
        <path class="cls-3" d="M588.05,692.24l1.13-15.87c.12-2.4-2.89-3.22-6.82-1.71h0c-3.92,1.52-7.33,4.79-7.46,7.18l-1.13,15.88c-.12,2.39,2.89,3.21,6.82,1.7h0C584.51,697.9,587.92,694.63,588.05,692.24Z"/>
      </g>
      <g>
        <polyline class="cls-3" points="487.9 853.82 518.5 898.2 519.16 979"/>
        <path class="cls-4" d="M551,986.38h0a7.79,7.79,0,0,1-7.4,6.41l-33.6-.74c-3.36-.09-5.76-3-5.1-6.72h0a7.8,7.8,0,0,1,7.41-6.41l33.59.74C549.3,979.75,551.61,982.82,551,986.38Z"/>
      </g>
      <g>
        <line class="cls-5" x1="525.48" y1="856.58" x2="543.65" y2="969"/>
        <path class="cls-4" d="M569.8,971.08h0a5.56,5.56,0,0,1-5.84,5.38l-31.2-.32a5.8,5.8,0,0,1-5.86-5.44h0a5.56,5.56,0,0,1,5.83-5.38l31.21.32A5.68,5.68,0,0,1,569.8,971.08Z"/>
      </g>
      <path class="cls-2" d="M476.64,773.5h82.42s-7.35,106.8,7.36,111.8c0,0-136.93,20.4-132.7,44.7C433.82,930,465.56,886.8,476.64,773.5Z"/>
      <path class="cls-3" d="M474,773.86s-7.36-64.1,0-76c0,0-23.28-12.4-1.62-24.3,0,0,97.73-15.9,101.46-28.8,0,0,24.89,70.6-12.69,129.2H474Z"/>
      <path class="cls-3" d="M540.62,697.86s17.94-12.9,13.71,0"/>
      <ellipse class="cls-7" cx="529.07" cy="686.23" rx="9.43" ry="8.02"/>
      <ellipse class="cls-7" cx="556.71" cy="676.21" rx="7.64" ry="8.91" transform="translate(-142.31 1204.01) rotate(-87.59)"/>
      <path class="cls-8" d="M476.14,701.36s7.36,60.1,0,72c0,0-27,43.7-54.41,7.5,0,0-8.46-151.5,65-157.5,0,0,70.33-30.8,98.84,0,0,0,19.55,33.8-104.08,48.2C481.48,671.56,453.47,673.56,476.14,701.36Z"/>
      <path class="cls-9" d="M565.21,632.56s-9.88,10.6-17.63,12.2S565.21,632.56,565.21,632.56Z"/>
      <path class="cls-9" d="M550.4,635s-23.08,17.4-41,20S550.4,635,550.4,635Z"/>
      <g>
        <path class="cls-2" d="M492.19,786.52l-30.4,24.22c-14,11-21.52,23.59-20.46,33.57l3,28.8"/>
        <path class="cls-3" d="M447.35,875.59l3.12-10.51c.53-1.61-1.14-2.51-3.73-1.94h0c-2.45.51-5,2.26-5.48,3.93l-3.12,10.52c-.53,1.61,1.14,2.51,3.73,1.94h0C444.46,879,447,877.2,447.35,875.59Z"/>
      </g>
      <path class="cls-6" d="M505.5,743.5s2,3,35-3"/>
    </g>
    <rect class="cls-1" y="497" width="350" height="500"/>
    <g>
      <polyline class="cls-3" points="170.21 887.83 160.21 929.53 116.71 971.83"/>
      <line class="cls-5" x1="194.91" y1="884.33" x2="218.51" y2="980.73"/>
      <path class="cls-4" d="M127.31,995h0a5.13,5.13,0,0,1-6.9-1.2l-15.1-20.9a4.64,4.64,0,0,1,1.3-6.6h0a5.13,5.13,0,0,1,6.9,1.2l15.1,20.9A4.54,4.54,0,0,1,127.31,995Z"/>
      <path class="cls-4" d="M241,980.63h0a4.82,4.82,0,0,1-4.6,5.1l-26.7,2a5,5,0,0,1-5.4-4.3h0a4.82,4.82,0,0,1,4.6-5.1l26.7-2A4.93,4.93,0,0,1,241,980.63Z"/>
      <path class="cls-2" d="M170.21,793.63,140,806.83c-14.2,6.2-23.3,19.7-23.3,34.5v42.8"/>
      <path class="cls-3" d="M115.51,877.33l-4.1,11.8a3.48,3.48,0,0,0,2.3,4.4h0a3.69,3.69,0,0,0,4.6-2.2l4.1-11.8a3.48,3.48,0,0,0-2.3-4.4h0A3.73,3.73,0,0,0,115.51,877.33Z"/>
      <path class="cls-2" d="M210.11,795.93l13.7,26.2c6.2,12,18.2,20.4,32,22.6l39.8,6.4"/>
      <path class="cls-3" d="M300.71,849.93l-12-5a3.67,3.67,0,0,0-4.8,1.8h0a3.44,3.44,0,0,0,1.9,4.6l12,5a3.67,3.67,0,0,0,4.8-1.8h0A3.45,3.45,0,0,0,300.71,849.93Z"/>
      <path class="cls-2" d="M159.21,760.13H241s-7.3,106.8,7.3,111.8c0,0-135.9,20.4-131.7,44.7C116.71,916.63,148.21,873.43,159.21,760.13Z"/>
      <path class="cls-3" d="M156.61,760.13s-7.3-64.1,0-76c0,0-23.1-12.4-1.6-24.3,0,0,97-15.9,100.7-28.8,0,0,24.7,70.6-12.6,129.2h-86.5Z"/>
      <path class="cls-3" d="M202.21,714.43s-3.7,9.4,20.5,15.4"/>
      <path class="cls-3" d="M222.71,684.13s17.8-12.9,13.6,0"/>
      <ellipse class="cls-7" cx="210.21" cy="665.23" rx="10.5" ry="9.9"/>
      <ellipse class="cls-7" cx="237.48" cy="652.86" rx="9.4" ry="9.9" transform="translate(-440.22 805.64) rotate(-82.72)"/>
      <path class="cls-8" d="M158.71,687.63s7.3,60.1,0,72c0,0-26.8,43.7-54,7.5,0,0-8.4-151.5,64.5-157.5,0,0,69.8-30.8,98.1,0,0,0,19.4,33.8-103.3,48.2C163.91,657.73,136.11,659.73,158.71,687.63Z"/>
      <path class="cls-9" d="M247,618.73s-9.8,10.6-17.5,12.2C222,632.63,247,618.73,247,618.73Z"/>
      <path class="cls-9" d="M232.41,621.23s-22.9,17.4-40.7,20S232.41,621.23,232.41,621.23Z"/>
    </g>
  </g>
  <g id="surproised">
    <rect class="cls-1" x="348" width="350" height="500"/>
    <g>
      <g>
        <polyline class="cls-3" points="496.57 355.63 527.16 400.01 527.82 480.81"/>
        <path class="cls-4" d="M559.71,488.19h0c-.67,3.67-4.05,6.5-7.41,6.41l-33.6-.74c-3.36-.09-5.76-3.05-5.1-6.72h0a7.8,7.8,0,0,1,7.41-6.41l33.6.74C558,481.56,560.28,484.62,559.71,488.19Z"/>
      </g>
      <g>
        <line class="cls-5" x1="484.48" y1="373.58" x2="502.65" y2="486"/>
        <path class="cls-4" d="M528.8,488.08h0a5.56,5.56,0,0,1-5.84,5.38l-31.2-.32a5.8,5.8,0,0,1-5.86-5.44h0a5.56,5.56,0,0,1,5.83-5.38l31.21.32A5.68,5.68,0,0,1,528.8,488.08Z"/>
      </g>
      <path class="cls-2" d="M463.64,266.86h82.42s-7.35,106.8,7.36,111.8c0,0-136.93,20.4-132.7,44.7C420.82,423.36,452.56,380.16,463.64,266.86Z"/>
      <path class="cls-3" d="M461,266.86s-7.36-64.1,0-76c0,0-23.28-12.4-1.62-24.3,0,0,97.73-15.9,101.46-28.8,0,0,24.89,70.6-12.69,129.2H461Z"/>
      <path class="cls-3" d="M527.62,190.86s17.94-12.9,13.71,0"/>
      <ellipse class="cls-7" cx="516.07" cy="179.23" rx="9.43" ry="8.02"/>
      <ellipse class="cls-7" cx="543.71" cy="169.21" rx="7.64" ry="8.91" transform="translate(351.79 705.33) rotate(-87.59)"/>
      <path class="cls-8" d="M463.14,194.36s7.36,60.1,0,72c0,0-27,43.7-54.41,7.5,0,0-8.46-151.5,65-157.5,0,0,70.33-30.8,98.84,0,0,0,19.55,33.8-104.08,48.2C468.48,164.56,440.47,166.56,463.14,194.36Z"/>
      <path class="cls-9" d="M552.21,125.56s-9.88,10.6-17.63,12.2S552.21,125.56,552.21,125.56Z"/>
      <path class="cls-9" d="M537.4,128s-23.08,17.4-41,20S537.4,128,537.4,128Z"/>
      <ellipse class="cls-10" cx="522.64" cy="223.94" rx="9.03" ry="10.51" transform="matrix(0.57, -0.82, 0.82, 0.57, 41.07, 526.25)"/>
      <g>
        <path class="cls-2" d="M525.51,324.12l20.55-33c9.45-15.07,12.4-29.42,8.06-38.47l-12.45-26.14"/>
        <path class="cls-3" d="M538,225.19l.57,10.95c0,1.69,1.92,2,4.17.58h0c2.14-1.3,3.93-3.8,3.85-5.54l-.58-11c0-1.7-1.92-2-4.16-.58h0C539.59,221.05,537.8,223.54,538,225.19Z"/>
      </g>
      <g>
        <path class="cls-2" d="M461,307.73l32.86-4.58c15.44-2.14,27.89-12.69,31.85-26.95L537.13,235"/>
        <path class="cls-3" d="M536.45,241.93l7.14-10.27a3.48,3.48,0,0,0-1.06-4.86h0a3.72,3.72,0,0,0-5,.88L530.34,238a3.49,3.49,0,0,0,1,4.86h0A3.73,3.73,0,0,0,536.45,241.93Z"/>
      </g>
    </g>
    <rect class="cls-1" width="350" height="500"/>
    <g>
      <path class="cls-4" d="M109.68,493.5h0a5.19,5.19,0,0,1-7-1.2L87.51,471.4a4.63,4.63,0,0,1,1.31-6.6h0a5.2,5.2,0,0,1,7,1.2L111,486.9A4.7,4.7,0,0,1,109.68,493.5Z"/>
      <path class="cls-4" d="M224.14,479h0a4.84,4.84,0,0,1-4.64,5.1l-26.9,2a5,5,0,0,1-5.44-4.3h0a4.83,4.83,0,0,1,4.63-5.1l26.91-2A4.91,4.91,0,0,1,224.14,479Z"/>
      <g>
        <polyline class="cls-3" points="152.9 386.2 142.83 427.9 98.9 470.2"/>
        <line class="cls-5" x1="177.69" y1="382.7" x2="201.47" y2="479.1"/>
        <path class="cls-2" d="M152.9,292.1l-30.42,13.2C108.17,311.5,99,325,99,339.8v42.8"/>
        <path class="cls-3" d="M97.79,375.7l-4.13,11.8A3.47,3.47,0,0,0,96,391.9h0a3.72,3.72,0,0,0,4.63-2.2l4.13-11.8a3.47,3.47,0,0,0-2.31-4.4h0A3.73,3.73,0,0,0,97.79,375.7Z"/>
        <path class="cls-2" d="M193,294.3l13.81,26.2c6.24,12,18.33,20.4,32.24,22.6l40.1,6.4"/>
        <path class="cls-3" d="M284.29,348.3l-12.09-5a3.71,3.71,0,0,0-4.84,1.8h0a3.43,3.43,0,0,0,1.91,4.6l12.09,5a3.71,3.71,0,0,0,4.84-1.8h0A3.37,3.37,0,0,0,284.29,348.3Z"/>
        <path class="cls-2" d="M141.72,258.5h82.42s-7.36,106.8,7.35,111.8c0,0-136.92,20.4-132.69,44.7C98.9,415,130.64,371.8,141.72,258.5Z"/>
        <path class="cls-3" d="M139.1,258.5s-7.36-64.1,0-76c0,0-23.27-12.4-1.61-24.3,0,0,97.73-15.9,101.46-28.8,0,0,24.88,70.6-12.7,129.2H139.1Z"/>
        <path class="cls-3" d="M185.14,212.8s-3.72,9.4,20.66,15.4"/>
        <path class="cls-3" d="M205.7,182.5s17.93-12.9,13.7,0"/>
        <ellipse class="cls-7" cx="193.2" cy="163.6" rx="10.58" ry="9.9"/>
        <ellipse class="cls-7" cx="220.51" cy="151.12" rx="9.4" ry="9.97" transform="translate(45.86 353.51) rotate(-83.63)"/>
        <path class="cls-8" d="M141.22,186s7.35,60.1,0,72c0,0-27,43.7-54.41,7.5,0,0-8.47-151.5,65-157.5,0,0,70.33-30.8,98.84,0,0,0,19.55,33.8-104.07,48.2C146.56,156.2,118.55,158.2,141.22,186Z"/>
        <path class="cls-9" d="M230.28,117.2s-9.87,10.6-17.63,12.2S230.28,117.2,230.28,117.2Z"/>
        <path class="cls-9" d="M215.47,119.6s-23.07,17.4-41,20S215.47,119.6,215.47,119.6Z"/>
      </g>
    </g>
  </g>
</svg>
