<svg xmlns="http://www.w3.org/2000/svg" xmlns:xlink="http://www.w3.org/1999/xlink" viewBox="0 0 1400 500"><defs><style>.cls-1,.cls-8{fill:#f38b2e;}.cls-1,.cls-11,.cls-12,.cls-13,.cls-14,.cls-16,.cls-19,.cls-2,.cls-20,.cls-3,.cls-4,.cls-5,.cls-6,.cls-8,.cls-9{stroke:#000;}.cls-1,.cls-10,.cls-11,.cls-12,.cls-13,.cls-14,.cls-15,.cls-16,.cls-17,.cls-18,.cls-19,.cls-2,.cls-20,.cls-21,.cls-22,.cls-3,.cls-4,.cls-5,.cls-6,.cls-7,.cls-8,.cls-9{stroke-miterlimit:10;}.cls-2,.cls-9{fill:#f3d3c3;}.cls-3{fill:#110801;}.cls-4{fill:#020100;}.cls-6{fill:#050200;}.cls-18,.cls-21,.cls-22,.cls-7{fill:#f9a94b;stroke-width:5px;}.cls-7{stroke:url(#Summer);}.cls-8,.cls-9{stroke-width:0.75px;}.cls-10{fill:#510c0c;}.cls-10,.cls-17{stroke:#9e0808;}.cls-11{fill:#000102;}.cls-12,.cls-17{fill:#fff;}.cls-13{fill:#0d1b28;}.cls-14{fill:#b69e92;}.cls-15{fill:#f9f8f7;stroke:#b69e92;}.cls-16{fill:#63868c;}.cls-18{stroke:url(#Summer-2);}.cls-19{opacity:0.3;}.cls-20{fill:#191615;}.cls-21{stroke:url(#Summer-3);}.cls-22{stroke:url(#Summer-4);}</style><radialGradient id="Summer" cx="1379.29" cy="232.83" r="31.85" gradientTransform="matrix(-1.07, 0, 0, 0.99, 2719.39, -0.38)" gradientUnits="userSpaceOnUse"><stop offset="0" stop-color="#fff"/><stop offset="0.09" stop-color="#ffedd8"/><stop offset="0.21" stop-color="#ffd5a7"/><stop offset="0.33" stop-color="#ffc17d"/><stop offset="0.46" stop-color="#ffb05b"/><stop offset="0.59" stop-color="#ffa340"/><stop offset="0.72" stop-color="#ff9a2d"/><stop offset="0.86" stop-color="#ff9522"/><stop offset="1" stop-color="#ff931e"/></radialGradient><radialGradient id="Summer-2" cx="1663.42" cy="261.27" r="35.45" gradientTransform="matrix(-1, 0, 0, 0.87, 2555.92, 2.92)" xlink:href="#Summer"/><radialGradient id="Summer-3" cx="2067.66" cy="211.46" r="29" gradientTransform="matrix(-1.17, 0, 0, 1.11, 2951.02, -3.59)" xlink:href="#Summer"/><radialGradient id="Summer-4" cx="2366.8" cy="231.82" r="31.85" xlink:href="#Summer"/></defs><title>walk_hovedpersonen</title><g id="Layer_4" data-name="Layer 4"><polygon class="cls-1" points="1300.49 150.57 1262.45 165.46 1209.18 165.46 1177.9 159.19 1177.9 243.83 1297.11 243.83 1300.49 150.57"/><path class="cls-2" d="M1195.66,225.8l-16.91,14.11,13.53,8.62s18.6,15.67,19.44,8.62l-8.45-6.27s13.52,10.19,13.52,3.92c0,0,7.61,4.7,3.39-3.92l-6.77-5.49s9.3.79,6.77-5.48c0,0-3.39-1.57-13.53-1.57Z"/><path class="cls-3" d="M1262.45,294s-13.53,11.76-35.51,0"/><path class="cls-1" d="M1261.6,165.46c37.41-11.76,55.32-22,63.1-30.14,13-13.63-2.23-21.59-2.23-21.59,8.45-19.59-16.06-25.08-16.06-25.08,2.53,19.6,0,29,0,29l-73.55,39.19-71-21.16s.85-4.71,3.38-31.35c0,0-22.82-.79-15.21,11,0,0-60,31.35,60,50.16"/><path class="cls-1" d="M1314,222.67s7.6,12.54,0,32.13c0,0-94.69,20.38-147.11-3.92,0,0-6.64-4.2-5.43-20.52"/><path class="cls-1" d="M1325,219.53s13.52-92.47-10.15-77.58-22.82,9.4-18.6,60.34c0,0-7.61-3.13-26.21,21.94,0,0-9.3-7.83,0,19.6,0,0,24.26-3.22,40.56-10.6C1318.46,229.67,1324.46,225.14,1325,219.53Z"/><path class="cls-4" d="M1270.05,156.84s-5.91,18.81,0,35.26,0,7.84,0,7.84"/><path class="cls-5" d="M1188.05,156.84s4.23,37.61,2.54,45.45"/><ellipse class="cls-6" cx="1270.48" cy="156.44" rx="2.96" ry="2.74"/><ellipse class="cls-5" cx="1188.47" cy="156.44" rx="2.96" ry="2.74"/><path class="cls-7" d="M1268.89,207l-53.47,3.14s-27.17,33.7,7.89,44.67c0,0,57.18,1.07,54-12.79C1277.32,242,1281.16,226.59,1268.89,207Z"/><path class="cls-8" d="M1241.73,259.82a57.91,57.91,0,0,1-6.34-5A42.47,42.47,0,0,1,1241.73,259.82Z"/><path class="cls-8" d="M1230.32,257.15a59,59,0,0,1,7,5.72A46.46,46.46,0,0,1,1230.32,257.15Z"/><path class="cls-9" d="M1189.42,219.27l16.38,19.85s15.22,0,14.38,3.92-7.61,3.14-7.61,3.14,10.14,8.62,6.76,8.62c-1.2,0-2.92-.89-4.65-2a42.47,42.47,0,0,0-6.34-5,57.91,57.91,0,0,0,6.34,5c1.65,1.71,2.64,3.43,1.27,4.38s-3.51.06-5.71-1.33a59.3,59.3,0,0,0-7-5.72,46.71,46.71,0,0,0,7,5.72c2.09,2.13,3.22,4.12.64,4.46-5.92.79-18.6-11-18.6-11l-26-16.25,20.72-16.66Z"/><path class="cls-8" d="M1187.05,216.4l-2.07-2.51-8.37-10.15-3.78-4.58s9.78,21.68,10.38-37.75c0,0-31.9-9-37.62-14.26,0,0-16.72,63.76,15.41,82.57l5.33,3.34"/><line class="cls-10" x1="1192.54" y1="245" x2="1190.17" y2="242.27"/><line class="cls-10" x1="1194.9" y1="242.08" x2="1190.94" y2="240.05"/><line class="cls-10" x1="1205.38" y1="239.37" x2="1201.42" y2="237.34"/><line class="cls-10" x1="1200.55" y1="239.58" x2="1198.38" y2="236.81"/><line class="cls-10" x1="1197.25" y1="242.93" x2="1194.88" y2="240.2"/><line class="cls-10" x1="1200.93" y1="241.32" x2="1196.97" y2="239.29"/><line class="cls-10" x1="1203.58" y1="237.18" x2="1201.41" y2="234.4"/><line class="cls-10" x1="1190.48" y1="241.87" x2="1186.52" y2="239.84"/><line class="cls-10" x1="1190.16" y1="240.39" x2="1187.8" y2="237.66"/><line class="cls-10" x1="1192.95" y1="239.15" x2="1192.76" y2="238"/><line class="cls-10" x1="1197.43" y1="238.37" x2="1195.84" y2="237.62"/><line class="cls-10" x1="1194.78" y1="238.35" x2="1192.61" y2="235.57"/><line class="cls-10" x1="1196.98" y1="237.4" x2="1193.02" y2="235.37"/><line class="cls-10" x1="1200.3" y1="235.88" x2="1196" y2="234.13"/><line class="cls-10" x1="1185.37" y1="239.27" x2="1183" y2="236.54"/><line class="cls-10" x1="1186.65" y1="238.14" x2="1186.46" y2="237"/><line class="cls-10" x1="1191.15" y1="236.79" x2="1187.09" y2="235.82"/><line class="cls-10" x1="1189.83" y1="225.16" x2="1192.09" y2="227.91"/><line class="cls-10" x1="1187.31" y1="228.01" x2="1191.2" y2="230.09"/><line class="cls-10" x1="1176.6" y1="230.49" x2="1180.49" y2="232.58"/><line class="cls-10" x1="1181.48" y1="230.37" x2="1183.53" y2="233.16"/><line class="cls-10" x1="1184.98" y1="227.11" x2="1187.23" y2="229.87"/><line class="cls-10" x1="1181.19" y1="228.64" x2="1185.08" y2="230.73"/><line class="cls-10" x1="1178.31" y1="232.7" x2="1180.36" y2="235.49"/><line class="cls-10" x1="1191.76" y1="228.31" x2="1195.65" y2="230.39"/><line class="cls-10" x1="1192" y1="229.77" x2="1194.25" y2="232.52"/><line class="cls-10" x1="1189.13" y1="230.95" x2="1189.26" y2="232.09"/><line class="cls-10" x1="1184.57" y1="231.63" x2="1186.14" y2="232.41"/><line class="cls-10" x1="1187.24" y1="231.71" x2="1189.29" y2="234.5"/><line class="cls-10" x1="1184.97" y1="232.61" x2="1188.86" y2="234.69"/><line class="cls-10" x1="1181.55" y1="234.05" x2="1185.8" y2="235.86"/><line class="cls-10" x1="1196.78" y1="230.98" x2="1199.03" y2="233.73"/><line class="cls-10" x1="1195.43" y1="232.07" x2="1195.56" y2="233.21"/><line class="cls-10" x1="1190.83" y1="233.32" x2="1194.87" y2="234.36"/><line class="cls-10" x1="1183.11" y1="219.14" x2="1185.36" y2="221.89"/><line class="cls-10" x1="1180.58" y1="221.99" x2="1184.47" y2="224.07"/><line class="cls-10" x1="1169.87" y1="224.48" x2="1173.76" y2="226.56"/><line class="cls-10" x1="1174.75" y1="224.35" x2="1176.8" y2="227.15"/><line class="cls-10" x1="1178.25" y1="221.1" x2="1180.5" y2="223.85"/><line class="cls-10" x1="1174.46" y1="222.63" x2="1178.35" y2="224.71"/><line class="cls-10" x1="1171.58" y1="226.68" x2="1173.63" y2="229.47"/><line class="cls-10" x1="1185.03" y1="222.29" x2="1188.92" y2="224.37"/><line class="cls-10" x1="1185.27" y1="223.76" x2="1187.52" y2="226.51"/><line class="cls-10" x1="1182.4" y1="224.93" x2="1182.54" y2="226.07"/><line class="cls-10" x1="1177.84" y1="225.62" x2="1179.41" y2="226.39"/><line class="cls-10" x1="1180.51" y1="225.69" x2="1182.56" y2="228.48"/><line class="cls-10" x1="1178.24" y1="226.59" x2="1182.13" y2="228.67"/><line class="cls-10" x1="1174.83" y1="228.03" x2="1179.07" y2="229.84"/><line class="cls-10" x1="1190.05" y1="224.96" x2="1192.3" y2="227.71"/><line class="cls-10" x1="1188.7" y1="226.05" x2="1188.84" y2="227.19"/><line class="cls-10" x1="1184.1" y1="227.31" x2="1188.14" y2="228.34"/><polyline class="cls-3" points="1166.93 233.25 1158.04 228.51 1181.94 209.74 1189.32 217.47"/><path class="cls-2" d="M1308.94,117.65s2.54-102.66-86.23-78.37c0,0-56.64-2.35-61.71,95.61l74.39,22Z"/><path class="cls-11" d="M1242.88,74.55l5.92,8.62s1.69-4.7,21.13-8.62S1269.09,58.09,1242.88,74.55Z"/><path class="cls-12" d="M1288.77,93.89c-7-5.22-24.11-15.67-37.16-6a6,6,0,0,0-2.32,3.26c-.74,3,.75,8.21,16.36,12.38l.32.09c1.68.55,18.11,5.67,24-1.33A5.74,5.74,0,0,0,1288.77,93.89Z"/><ellipse class="cls-13" cx="1270.89" cy="95.01" rx="9.6" ry="5.82" transform="translate(566.68 1157.21) rotate(-60.73)"/><polyline class="cls-14" points="1231.98 85.52 1232.63 111.77 1241.73 111.77"/><path class="cls-15" d="M1265.83,131.76s-8.46-15.68-38.89-11c0,0-35.51-11-37.2,11,0,0-2.63,7.31,9.11,8.86a17.5,17.5,0,0,0,14.35-5c2.89-2.77,11-4.11,33.18,5.49C1246.38,141.16,1269.21,143.51,1265.83,131.76Z"/><path class="cls-14" d="M1265,125.49s12.68,9.2,5.07,11.26"/><path class="cls-14" d="M1187.11,128.74s-3.48,6.42,3.56,15.79"/><line class="cls-12" x1="1261.18" y1="126.66" x2="1259.83" y2="140.32"/><line class="cls-12" x1="1257.06" y1="124.07" x2="1255.92" y2="141.55"/><line class="cls-12" x1="1251.99" y1="121.72" x2="1250.84" y2="141.55"/><line class="cls-12" x1="1246.92" y1="120.93" x2="1245.77" y2="140.77"/><line class="cls-12" x1="1242.69" y1="120.15" x2="1241.54" y2="138.42"/><line class="cls-12" x1="1238.46" y1="120.15" x2="1237.32" y2="137.64"/><line class="cls-12" x1="1234.24" y1="120.15" x2="1233.09" y2="136.07"/><line class="cls-12" x1="1230.01" y1="120.39" x2="1228.86" y2="133.72"/><line class="cls-12" x1="1224.94" y1="120.15" x2="1223.79" y2="133.72"/><line class="cls-12" x1="1220.71" y1="120.39" x2="1219.56" y2="133.72"/><line class="cls-12" x1="1217.33" y1="118.58" x2="1216.18" y2="133.72"/><line class="cls-12" x1="1213.95" y1="118.58" x2="1212.8" y2="135.28"/><line class="cls-12" x1="1209.72" y1="117.26" x2="1208.57" y2="139.2"/><line class="cls-12" x1="1205.49" y1="118.04" x2="1204.35" y2="139.99"/><line class="cls-12" x1="1201.27" y1="118.83" x2="1200.12" y2="140.77"/><line class="cls-12" x1="1196.19" y1="121.18" x2="1195.05" y2="139.99"/><path class="cls-12" d="M1181.52,92c8.32-5.55,23.74-13.16,35.5-3.36,0,0,8.45,8.62-15.22,14.89,0,0-9.22,3.14-16.73,2.19C1177.79,104.81,1175.56,96,1181.52,92Z"/><ellipse class="cls-13" cx="1196.74" cy="95.01" rx="5.82" ry="9.6" transform="translate(106.32 597.2) rotate(-29.27)"/><path class="cls-11" d="M1225.25,71.41,1219.33,80s-1.69-4.7-21.14-8.62S1199,55,1225.25,71.41Z"/><path class="cls-12" d="M1259.17,43.81s.95,11.61-8.63,17.31"/><path class="cls-16" d="M1304.29,84.74s-90.67-33.7-131.88-7.06c0,0,19.78-47,77.48-42.32C1249.89,35.36,1295.23,27.53,1304.29,84.74Z"/><polygon class="cls-2" points="1264.14 58.09 1232.86 55.74 1232.86 62.01 1264.14 65.14 1264.14 58.09"/><path class="cls-10" d="M1254,43.2s4.23,11-3.38,18.81"/><path class="cls-10" d="M1250.61,48.69s-5.92.78-5.07,11"/><path class="cls-17" d="M1242.16,51s.84,6.27-2.54,8.62"/><path class="cls-17" d="M1237.93,50.25a7.53,7.53,0,0,1-.85,9.41"/><path class="cls-10" d="M1239.62,44s-5.92,10.19-4.23,16.46"/><path class="cls-10" d="M1275.13,47.12s-9.3,3.92-13.53,16.46"/><path class="cls-10" d="M1265.83,47.12s0,7.83-9.3,13.32"/><path class="cls-4" d="M1312.86,250.88s4.21,47.81-7.58,65.83l-55.56,4.7L1243,297.9s-6.74,4.7-9.26,23.51l-63.15,2.35s-14.77-73.66-2.75-72.88S1199.2,279.09,1312.86,250.88Z"/></g><g id="Layer_3" data-name="Layer 3"><polygon class="cls-1" points="954.16 150.87 914.3 165.47 858.51 165.47 825.74 159.32 825.74 242.3 950.61 242.3 954.16 150.87"/><path class="cls-2" d="M844.34,224.63l-17.71,13.83,14.17,8.45s19.48,15.37,20.37,8.45l-8.86-6.14s14.17,10,14.17,3.84c0,0,8,4.61,3.54-3.84l-7.08-5.38s9.74.77,7.08-5.38c0,0-3.54-1.54-14.17-1.54Z"/><path class="cls-4" d="M967.12,249.22s4.41,46.86-7.94,64.54L901,318.37l-7.06-23.05s-7,4.61-9.7,23.05l-66.15,2.3s-15.47-72.22-2.88-71.45S848.05,276.88,967.12,249.22Z"/><path class="cls-3" d="M914.3,291.47s-14.17,11.53-37.19,0"/><path class="cls-2" d="M959.87,313.37s1.74,77-18.17,81.06H901s6.06-30,0-76.19C901,318.24,955.55,315.8,959.87,313.37Z"/><path class="cls-2" d="M883.31,317.6l-66.42,2.3s8,60.7,4.43,69.92h54.9S870,375.22,883.31,317.6Z"/><line class="cls-10" x1="956.37" y1="320.29" x2="953.68" y2="328.8"/><line class="cls-10" x1="942.88" y1="324.55" x2="945.65" y2="333.06"/><line class="cls-10" x1="912.39" y1="320.29" x2="915.17" y2="328.8"/><line class="cls-10" x1="923.47" y1="324.59" x2="920.23" y2="333.02"/><line class="cls-10" x1="940.23" y1="320.29" x2="937.54" y2="328.8"/><line class="cls-10" x1="927.64" y1="320.29" x2="930.41" y2="328.8"/><line class="cls-10" x1="910.03" y1="327.02" x2="906.78" y2="335.45"/><line class="cls-10" x1="951.84" y1="329.42" x2="954.62" y2="337.92"/><line class="cls-10" x1="948.3" y1="333.06" x2="945.61" y2="341.58"/><line class="cls-10" x1="938.72" y1="333.11" x2="935.84" y2="335.89"/><line class="cls-10" x1="926.76" y1="330.43" x2="928.07" y2="333.7"/><line class="cls-10" x1="932.44" y1="333.11" x2="929.19" y2="341.54"/><line class="cls-10" x1="924.95" y1="333.07" x2="927.72" y2="341.57"/><line class="cls-10" x1="913.41" y1="333.22" x2="917.73" y2="341.42"/><line class="cls-10" x1="955.47" y1="340.36" x2="952.78" y2="348.88"/><line class="cls-10" x1="949.48" y1="341.63" x2="946.6" y2="344.41"/><line class="cls-10" x1="935.85" y1="340.23" x2="941.88" y2="346.44"/><line class="cls-10" x1="905.38" y1="367.82" x2="908.38" y2="359.37"/><line class="cls-10" x1="919.02" y1="363.88" x2="916.56" y2="355.31"/><line class="cls-10" x1="949.34" y1="368.88" x2="946.87" y2="360.31"/><line class="cls-10" x1="938.42" y1="364.32" x2="941.97" y2="355.97"/><line class="cls-10" x1="921.51" y1="368.21" x2="924.51" y2="359.76"/><line class="cls-10" x1="934.1" y1="368.51" x2="931.64" y2="359.94"/><line class="cls-10" x1="951.95" y1="362.21" x2="955.5" y2="353.87"/><line class="cls-10" x1="910.24" y1="358.8" x2="907.77" y2="350.23"/><line class="cls-10" x1="913.91" y1="355.24" x2="916.91" y2="346.8"/><line class="cls-10" x1="923.49" y1="355.43" x2="926.47" y2="352.72"/><line class="cls-10" x1="935.34" y1="358.4" x2="934.16" y2="355.09"/><line class="cls-10" x1="929.77" y1="355.58" x2="933.32" y2="347.24"/><line class="cls-10" x1="937.26" y1="355.81" x2="934.79" y2="347.24"/><line class="cls-10" x1="948.79" y1="355.94" x2="944.77" y2="347.63"/><line class="cls-10" x1="907.01" y1="347.77" x2="910.01" y2="339.32"/><line class="cls-10" x1="913.05" y1="346.66" x2="916.02" y2="343.95"/><line class="cls-10" x1="926.62" y1="348.38" x2="920.82" y2="342.03"/><line class="cls-10" x1="902.72" y1="388.09" x2="905.72" y2="379.64"/><line class="cls-10" x1="916.36" y1="384.15" x2="913.9" y2="375.58"/><line class="cls-10" x1="946.68" y1="389.15" x2="944.22" y2="380.58"/><line class="cls-10" x1="935.76" y1="384.59" x2="939.32" y2="376.24"/><line class="cls-10" x1="918.86" y1="388.48" x2="921.85" y2="380.03"/><line class="cls-10" x1="931.45" y1="388.78" x2="928.98" y2="380.21"/><line class="cls-10" x1="949.29" y1="382.48" x2="952.85" y2="374.14"/><line class="cls-10" x1="907.58" y1="379.07" x2="905.12" y2="370.5"/><line class="cls-10" x1="911.26" y1="375.51" x2="914.25" y2="367.06"/><line class="cls-10" x1="920.84" y1="375.7" x2="923.81" y2="372.99"/><line class="cls-10" x1="932.69" y1="378.67" x2="931.5" y2="375.36"/><line class="cls-10" x1="927.11" y1="375.85" x2="930.66" y2="367.51"/><line class="cls-10" x1="934.6" y1="376.08" x2="932.14" y2="367.51"/><line class="cls-10" x1="946.13" y1="376.2" x2="942.11" y2="367.9"/><line class="cls-10" x1="904.35" y1="368.04" x2="907.35" y2="359.59"/><line class="cls-10" x1="910.39" y1="366.93" x2="913.37" y2="364.22"/><line class="cls-10" x1="923.97" y1="368.65" x2="918.16" y2="362.3"/><line class="cls-10" x1="874.89" y1="320.29" x2="872.2" y2="328.71"/><line class="cls-10" x1="861.4" y1="324.5" x2="864.18" y2="332.91"/><line class="cls-10" x1="830.92" y1="320.29" x2="833.69" y2="328.7"/><line class="cls-10" x1="842" y1="324.54" x2="838.75" y2="332.88"/><line class="cls-10" x1="858.76" y1="320.29" x2="856.07" y2="328.71"/><line class="cls-10" x1="846.16" y1="320.29" x2="848.93" y2="328.7"/><line class="cls-10" x1="828.55" y1="326.95" x2="825.3" y2="335.28"/><line class="cls-10" x1="870.37" y1="329.32" x2="873.14" y2="337.73"/><line class="cls-10" x1="866.83" y1="332.92" x2="864.14" y2="341.34"/><line class="cls-10" x1="857.24" y1="332.97" x2="854.37" y2="335.71"/><line class="cls-10" x1="845.29" y1="330.31" x2="846.6" y2="333.55"/><line class="cls-10" x1="850.97" y1="332.97" x2="847.72" y2="341.3"/><line class="cls-10" x1="843.47" y1="332.93" x2="846.25" y2="341.34"/><line class="cls-10" x1="831.94" y1="333.08" x2="836.26" y2="341.19"/><line class="cls-10" x1="874" y1="340.14" x2="871.31" y2="348.56"/><line class="cls-10" x1="868" y1="341.39" x2="865.13" y2="344.14"/><line class="cls-10" x1="854.37" y1="340.01" x2="860.41" y2="346.14"/><line class="cls-10" x1="823.91" y1="367.29" x2="826.9" y2="358.93"/><line class="cls-10" x1="837.55" y1="363.4" x2="835.08" y2="354.92"/><line class="cls-10" x1="867.86" y1="368.34" x2="865.4" y2="359.87"/><line class="cls-10" x1="856.94" y1="363.82" x2="860.5" y2="355.57"/><line class="cls-10" x1="840.04" y1="367.68" x2="843.04" y2="359.32"/><line class="cls-10" x1="852.63" y1="367.97" x2="850.16" y2="359.5"/><line class="cls-10" x1="870.47" y1="361.74" x2="874.03" y2="353.49"/><line class="cls-10" x1="828.76" y1="358.37" x2="826.3" y2="349.9"/><line class="cls-10" x1="832.44" y1="354.85" x2="835.44" y2="346.5"/><line class="cls-10" x1="842.02" y1="355.04" x2="844.99" y2="352.36"/><line class="cls-10" x1="853.87" y1="357.98" x2="852.68" y2="354.71"/><line class="cls-10" x1="848.29" y1="355.19" x2="851.85" y2="346.94"/><line class="cls-10" x1="855.78" y1="355.41" x2="853.32" y2="346.94"/><line class="cls-10" x1="867.31" y1="355.54" x2="863.3" y2="347.33"/><line class="cls-10" x1="825.53" y1="347.46" x2="828.53" y2="339.11"/><line class="cls-10" x1="831.57" y1="346.36" x2="834.55" y2="343.68"/><line class="cls-10" x1="845.15" y1="348.07" x2="839.34" y2="341.79"/><line class="cls-10" x1="821.25" y1="387.33" x2="824.25" y2="378.98"/><line class="cls-10" x1="834.89" y1="383.44" x2="832.43" y2="374.97"/><line class="cls-10" x1="865.21" y1="388.38" x2="862.74" y2="379.91"/><line class="cls-10" x1="854.29" y1="383.87" x2="857.84" y2="375.62"/><line class="cls-10" x1="837.38" y1="387.72" x2="840.38" y2="379.37"/><line class="cls-10" x1="849.97" y1="388.02" x2="847.51" y2="379.54"/><line class="cls-10" x1="867.82" y1="381.79" x2="871.37" y2="373.54"/><line class="cls-10" x1="826.1" y1="378.41" x2="823.64" y2="369.94"/><line class="cls-10" x1="829.78" y1="374.9" x2="832.78" y2="366.54"/><line class="cls-10" x1="839.36" y1="375.08" x2="842.34" y2="372.4"/><line class="cls-10" x1="851.21" y1="378.02" x2="850.02" y2="374.75"/><line class="cls-10" x1="845.63" y1="375.23" x2="849.19" y2="366.98"/><line class="cls-10" x1="853.12" y1="375.45" x2="850.66" y2="366.98"/><line class="cls-10" x1="864.66" y1="375.58" x2="860.64" y2="367.37"/><line class="cls-10" x1="822.88" y1="367.51" x2="825.88" y2="359.15"/><line class="cls-10" x1="828.92" y1="366.41" x2="831.89" y2="363.73"/><line class="cls-10" x1="842.49" y1="368.11" x2="836.68" y2="361.83"/><path class="cls-1" d="M913.42,165.47c39.19-11.53,58-21.54,66.1-29.55,13.57-13.36-2.34-21.16-2.34-21.16,8.86-19.21-16.83-24.59-16.83-24.59,2.66,19.21,0,28.43,0,28.43l-77,38.42-74.39-20.75s.88-4.61,3.54-30.73c0,0-23.91-.77-15.94,10.75,0,0-62.88,30.74,62.88,49.18"/><path class="cls-1" d="M968.33,221.56s8,12.29,0,31.5c0,0-99.19,20-154.1-3.84,0,0-7-4.12-5.69-20.12"/><path class="cls-1" d="M979.84,218.48s14.17-90.66-10.63-76.06-23.91,9.22-19.48,59.16c0,0-8-3.07-27.46,21.51,0,0-9.74-7.68,0,19.21,0,0,25.42-3.15,42.49-10.39C973,228.42,979.26,224,979.84,218.48Z"/><path class="cls-4" d="M922.27,157s-6.19,18.44,0,34.57,0,7.68,0,7.68"/><path class="cls-5" d="M836.37,157s4.43,36.88,2.66,44.56"/><ellipse class="cls-6" cx="922.72" cy="156.63" rx="3.1" ry="2.69"/><ellipse class="cls-5" cx="836.81" cy="156.63" rx="3.1" ry="2.69"/><path class="cls-18" d="M921.05,206.19l-56,3.07s-28.46,33,8.27,43.8c0,0,59.9,1.05,56.57-12.54C929.88,240.52,933.91,225.4,921.05,206.19Z"/><path class="cls-8" d="M892.6,258a60.26,60.26,0,0,1-6.64-4.92A43.93,43.93,0,0,1,892.6,258Z"/><path class="cls-8" d="M880.65,255.36A61.2,61.2,0,0,1,888,261,48.5,48.5,0,0,1,880.65,255.36Z"/><path class="cls-9" d="M837.81,218.22,855,237.69s15.94,0,15,3.84-8,3.08-8,3.08,10.63,8.45,7.09,8.45c-1.25,0-3.06-.87-4.87-2a44.88,44.88,0,0,0-6.64-4.93,58.61,58.61,0,0,0,6.64,4.93c1.73,1.68,2.76,3.36,1.33,4.29s-3.68.06-6-1.3a61.2,61.2,0,0,0-7.31-5.61,48.5,48.5,0,0,0,7.31,5.61c2.19,2.09,3.37,4,.66,4.38-6.2.76-19.48-10.76-19.48-10.76l-27.19-15.94,21.72-16.33Z"/><path class="cls-8" d="M835.33,215.41,833.16,213,824.39,203l-4-4.49s10.24,21.25,10.88-37c0,0-33.43-8.87-39.42-14,0,0-17.51,62.51,16.14,80.95l5.58,3.27"/><line class="cls-10" x1="841.07" y1="243.45" x2="838.59" y2="240.78"/><line class="cls-10" x1="843.55" y1="240.59" x2="839.4" y2="238.6"/><line class="cls-10" x1="854.53" y1="237.93" x2="850.38" y2="235.94"/><line class="cls-10" x1="849.47" y1="238.14" x2="847.19" y2="235.42"/><line class="cls-10" x1="846.01" y1="241.43" x2="843.53" y2="238.75"/><line class="cls-10" x1="849.86" y1="239.84" x2="845.71" y2="237.86"/><line class="cls-10" x1="852.64" y1="235.78" x2="850.37" y2="233.06"/><line class="cls-10" x1="838.92" y1="240.38" x2="834.77" y2="238.39"/><line class="cls-10" x1="838.59" y1="238.93" x2="836.11" y2="236.26"/><line class="cls-10" x1="841.5" y1="237.72" x2="841.3" y2="236.59"/><line class="cls-10" x1="846.2" y1="236.95" x2="844.53" y2="236.21"/><line class="cls-10" x1="843.42" y1="236.93" x2="841.15" y2="234.2"/><line class="cls-10" x1="845.73" y1="236" x2="841.58" y2="234.01"/><line class="cls-10" x1="849.2" y1="234.51" x2="844.7" y2="232.8"/><line class="cls-10" x1="833.56" y1="237.83" x2="831.08" y2="235.15"/><line class="cls-10" x1="834.91" y1="236.73" x2="834.71" y2="235.6"/><line class="cls-10" x1="839.62" y1="235.4" x2="835.36" y2="234.45"/><line class="cls-10" x1="838.24" y1="224" x2="840.6" y2="226.69"/><line class="cls-10" x1="835.59" y1="226.79" x2="839.67" y2="228.83"/><line class="cls-10" x1="824.38" y1="229.23" x2="828.46" y2="231.27"/><line class="cls-10" x1="829.49" y1="229.11" x2="831.64" y2="231.85"/><line class="cls-10" x1="833.15" y1="225.92" x2="835.51" y2="228.61"/><line class="cls-10" x1="829.18" y1="227.42" x2="833.26" y2="229.46"/><line class="cls-10" x1="826.17" y1="231.39" x2="828.31" y2="234.13"/><line class="cls-10" x1="840.25" y1="227.08" x2="844.33" y2="229.13"/><line class="cls-10" x1="840.51" y1="228.52" x2="842.87" y2="231.22"/><line class="cls-10" x1="837.5" y1="229.67" x2="837.64" y2="230.79"/><line class="cls-10" x1="832.72" y1="230.35" x2="834.37" y2="231.11"/><line class="cls-10" x1="835.52" y1="230.42" x2="837.67" y2="233.16"/><line class="cls-10" x1="833.15" y1="231.3" x2="837.22" y2="233.34"/><line class="cls-10" x1="829.57" y1="232.71" x2="834.02" y2="234.49"/><line class="cls-10" x1="845.52" y1="229.71" x2="847.88" y2="232.4"/><line class="cls-10" x1="844.1" y1="230.77" x2="844.24" y2="231.89"/><line class="cls-10" x1="839.28" y1="232" x2="843.52" y2="233.02"/><line class="cls-10" x1="831.19" y1="218.1" x2="833.55" y2="220.79"/><line class="cls-10" x1="828.55" y1="220.89" x2="832.62" y2="222.94"/><line class="cls-10" x1="817.33" y1="223.33" x2="821.41" y2="225.37"/><line class="cls-10" x1="822.44" y1="223.21" x2="824.59" y2="225.95"/><line class="cls-10" x1="826.11" y1="220.02" x2="828.46" y2="222.71"/><line class="cls-10" x1="822.14" y1="221.52" x2="826.21" y2="223.56"/><line class="cls-10" x1="819.12" y1="225.49" x2="821.27" y2="228.23"/><line class="cls-10" x1="833.2" y1="221.18" x2="837.28" y2="223.23"/><line class="cls-10" x1="833.46" y1="222.62" x2="835.82" y2="225.32"/><line class="cls-10" x1="830.46" y1="223.77" x2="830.6" y2="224.89"/><line class="cls-10" x1="825.68" y1="224.45" x2="827.32" y2="225.21"/><line class="cls-10" x1="828.48" y1="224.52" x2="830.62" y2="227.26"/><line class="cls-10" x1="826.1" y1="225.4" x2="830.18" y2="227.44"/><line class="cls-10" x1="822.52" y1="226.81" x2="826.97" y2="228.59"/><line class="cls-10" x1="838.47" y1="223.81" x2="840.83" y2="226.5"/><line class="cls-10" x1="837.05" y1="224.87" x2="837.19" y2="225.99"/><line class="cls-10" x1="832.23" y1="226.1" x2="836.47" y2="227.12"/><polyline class="cls-3" points="814.25 231.93 804.93 227.29 829.97 208.88 837.7 216.46"/><path class="cls-2" d="M963,118.6S965.67,18,872.68,41.77c0,0-59.33-2.31-64.65,93.73L886,157Z"/><path class="cls-11" d="M893.81,76.34l6.2,8.45s1.77-4.61,22.14-8.45S921.26,60.21,893.81,76.34Z"/><path class="cls-12" d="M941.88,95.3c-7.38-5.11-25.26-15.36-38.92-5.9a5.8,5.8,0,0,0-2.43,3.19c-.79,3,.77,8,17.13,12.13l.33.09c1.76.54,19,5.56,25.15-1.3C945.41,101,944.77,97.3,941.88,95.3Z"/><ellipse class="cls-13" cx="923.14" cy="96.4" rx="9.58" ry="5.99" transform="translate(339.45 818.06) rotate(-56.99)"/><polyline class="cls-14" points="882.4 87.1 883.08 112.84 892.61 112.84"/><path class="cls-15" d="M917.85,132.43s-8.86-15.37-40.74-10.76c0,0-37.2-10.75-39,10.76,0,0-2.75,7.17,9.55,8.69a19.12,19.12,0,0,0,15-4.85c3-2.73,11.51-4,34.76,5.38C897.48,141.65,921.39,144,917.85,132.43Z"/><path class="cls-14" d="M917,126.28s13.28,9,5.31,11.05"/><path class="cls-14" d="M835.39,129.47s-3.64,6.3,3.72,15.48"/><line class="cls-12" x1="912.98" y1="127.43" x2="911.57" y2="140.83"/><line class="cls-12" x1="908.67" y1="124.89" x2="907.46" y2="142.03"/><line class="cls-12" x1="903.35" y1="122.58" x2="902.15" y2="142.03"/><line class="cls-12" x1="898.04" y1="121.82" x2="896.84" y2="141.26"/><line class="cls-12" x1="893.61" y1="121.05" x2="892.41" y2="138.96"/><line class="cls-12" x1="889.18" y1="121.05" x2="887.98" y2="138.19"/><line class="cls-12" x1="884.75" y1="121.05" x2="883.55" y2="136.65"/><line class="cls-12" x1="880.33" y1="121.29" x2="879.12" y2="134.35"/><line class="cls-12" x1="875.01" y1="121.05" x2="873.81" y2="134.35"/><line class="cls-12" x1="870.58" y1="121.29" x2="869.38" y2="134.35"/><line class="cls-12" x1="867.04" y1="119.51" x2="865.84" y2="134.35"/><line class="cls-12" x1="863.5" y1="119.51" x2="862.3" y2="135.89"/><line class="cls-12" x1="859.07" y1="118.21" x2="857.87" y2="139.73"/><line class="cls-12" x1="854.64" y1="118.98" x2="853.44" y2="140.5"/><line class="cls-12" x1="850.22" y1="119.75" x2="849.01" y2="141.26"/><line class="cls-12" x1="844.9" y1="122.06" x2="843.7" y2="140.5"/><path class="cls-12" d="M829.53,93.47c8.71-5.45,24.87-12.91,37.19-3.3,0,0,8.85,8.45-16,14.6,0,0-9.65,3.07-17.52,2.14C825.63,106,823.29,97.37,829.53,93.47Z"/><ellipse class="cls-13" cx="845.48" cy="96.4" rx="5.99" ry="9.58" transform="translate(83.93 476.1) rotate(-33.01)"/><path class="cls-11" d="M875.34,73.27l-6.2,8.45s-1.77-4.61-22.14-8.45S847.88,57.13,875.34,73.27Z"/><path class="cls-12" d="M910.87,46.2s1,11.39-9,17"/><path class="cls-16" d="M958.14,86.33s-95-33-138.15-6.92c0,0,20.72-46.1,81.16-41.49C901.15,37.92,948.64,30.24,958.14,86.33Z"/><polygon class="cls-2" points="916.08 60.2 883.31 57.9 883.31 64.05 916.08 67.12 916.08 60.2"/><path class="cls-10" d="M905.45,45.61s4.43,10.75-3.54,18.44"/><path class="cls-10" d="M901.91,51s-6.2.76-5.32,10.75"/><path class="cls-17" d="M893.05,53.29s.89,6.15-2.66,8.45"/><path class="cls-17" d="M888.62,52.52a7,7,0,0,1-.88,9.22"/><path class="cls-10" d="M890.39,46.38s-6.2,10-4.43,16.13"/><path class="cls-10" d="M927.59,49.45s-9.74,3.84-14.17,16.13"/><path class="cls-10" d="M917.85,49.45s0,7.68-9.75,13.06"/><path class="cls-16" d="M874.51,387.33c-.78,15.94-3.18,22.95-7.36,34.62-17.7,1.05.49.39-35.9,3.12-1.74-2.82-3.48-4.23-5.51-13-1-8.93-2.23-14.26-3.26-23.65C849,387.79,853.73,388,874.51,387.33Z"/><ellipse class="cls-19" cx="892.95" cy="425.07" rx="91.55" ry="41.93"/><path class="cls-20" d="M816.37,396c16.49-.64,37.65,8.62,51,25.24-2.76,7.45-20.23,5.53-43,4.89C809.45,408.89,809.37,398.47,816.37,396Z"/><path class="cls-16" d="M953.1,392c-4.54,9.7-4.54,10.55-9.73,20.67,13.62-.42,26.6-.42,28.55,5.07,1.94,5.9-30.5,6.32-65.54,3.37-4.54-11.81-5.84-14.77-10.38-28.27C924.55,392.42,931.69,392.42,953.1,392Z"/></g><g id="Layer_2" data-name="Layer 2"><ellipse class="cls-19" cx="520.95" cy="420.07" rx="91.55" ry="41.93"/><path class="cls-16" d="M476,375c-1.54,2.91-.9,6,0,10,2.15,9.58,9.48,24.09,18,24,10.91-.11,19-22,16-35C503.05,364.46,480.73,366.09,476,375Z"/><polygon class="cls-1" points="592 150.59 554.53 165.66 502.07 165.66 471.26 159.32 471.26 244.97 588.67 244.97 592 150.59"/><path class="cls-2" d="M488.75,226.73,472.09,241l13.32,8.72s18.32,15.86,19.16,8.72l-8.33-6.34s13.32,10.31,13.32,4c0,0,7.5,4.76,3.33-4l-6.66-5.55s9.16.79,6.66-5.55c0,0-3.33-1.59-13.32-1.59Z"/><path class="cls-4" d="M604.19,252.11s4.14,48.38-7.47,66.62L542,323.49l-6.64-23.8s-6.63,4.76-9.12,23.8L464,325.86s-14.55-74.54-2.72-73.75S492.23,280.66,604.19,252.11Z"/><path class="cls-3" d="M554.53,295.73s-13.33,11.89-35,0"/><path class="cls-2" d="M591,318.33s1.44,79.49-15.11,83.67H542s5-31,0-78.65C542,323.35,587.37,320.84,591,318.33Z"/><path class="cls-2" d="M525.38,322.69l-62.45,1.38s7.5,36.4,4.17,41.93h51.62S512.89,357.25,525.38,322.69Z"/><line class="cls-10" x1="587" y1="325.47" x2="584.83" y2="334.26"/><line class="cls-10" x1="576.1" y1="329.87" x2="578.34" y2="338.65"/><line class="cls-10" x1="551.46" y1="325.47" x2="553.7" y2="334.25"/><line class="cls-10" x1="560.41" y1="329.91" x2="557.79" y2="338.61"/><line class="cls-10" x1="573.96" y1="325.47" x2="571.78" y2="334.26"/><line class="cls-10" x1="563.78" y1="325.47" x2="566.02" y2="334.25"/><line class="cls-10" x1="549.54" y1="332.42" x2="546.92" y2="341.12"/><line class="cls-10" x1="583.34" y1="334.89" x2="585.58" y2="343.67"/><line class="cls-10" x1="580.48" y1="338.66" x2="578.3" y2="347.45"/><line class="cls-10" x1="572.73" y1="338.7" x2="570.41" y2="341.57"/><line class="cls-10" x1="563.07" y1="335.93" x2="564.13" y2="339.32"/><line class="cls-10" x1="567.66" y1="338.7" x2="565.03" y2="347.4"/><line class="cls-10" x1="561.6" y1="338.66" x2="563.84" y2="347.44"/><line class="cls-10" x1="552.28" y1="338.82" x2="555.77" y2="347.29"/><line class="cls-10" x1="586.28" y1="346.19" x2="584.1" y2="354.98"/><line class="cls-10" x1="581.43" y1="347.49" x2="579.1" y2="350.36"/><line class="cls-10" x1="570.41" y1="346.06" x2="575.29" y2="352.46"/><line class="cls-10" x1="545.79" y1="374.53" x2="548.21" y2="365.81"/><line class="cls-10" x1="556.81" y1="370.47" x2="554.82" y2="361.62"/><line class="cls-10" x1="581.32" y1="375.63" x2="579.33" y2="366.78"/><line class="cls-10" x1="572.49" y1="370.91" x2="575.36" y2="362.3"/><line class="cls-10" x1="558.83" y1="374.93" x2="561.25" y2="366.21"/><line class="cls-10" x1="569" y1="375.24" x2="567.01" y2="366.4"/><line class="cls-10" x1="583.43" y1="368.74" x2="586.3" y2="360.13"/><line class="cls-10" x1="549.71" y1="365.22" x2="547.72" y2="356.38"/><line class="cls-10" x1="552.68" y1="361.55" x2="555.11" y2="352.83"/><line class="cls-10" x1="560.43" y1="361.74" x2="562.83" y2="358.95"/><line class="cls-10" x1="570.01" y1="364.81" x2="569.05" y2="361.4"/><line class="cls-10" x1="565.5" y1="361.9" x2="568.37" y2="353.29"/><line class="cls-10" x1="571.55" y1="362.13" x2="569.56" y2="353.29"/><line class="cls-10" x1="580.87" y1="362.26" x2="577.62" y2="353.69"/><line class="cls-10" x1="547.1" y1="353.84" x2="549.53" y2="345.12"/><line class="cls-10" x1="551.98" y1="352.69" x2="554.39" y2="349.89"/><line class="cls-10" x1="562.96" y1="354.47" x2="558.26" y2="347.91"/><line class="cls-10" x1="543.64" y1="395.45" x2="546.06" y2="386.73"/><line class="cls-10" x1="554.67" y1="391.39" x2="552.67" y2="382.55"/><line class="cls-10" x1="579.17" y1="396.55" x2="577.18" y2="387.7"/><line class="cls-10" x1="570.34" y1="391.84" x2="573.22" y2="383.22"/><line class="cls-10" x1="556.68" y1="395.86" x2="559.1" y2="387.14"/><line class="cls-10" x1="566.85" y1="396.17" x2="564.86" y2="387.32"/><line class="cls-10" x1="581.28" y1="389.66" x2="584.15" y2="381.05"/><line class="cls-10" x1="547.56" y1="386.14" x2="545.57" y2="377.3"/><line class="cls-10" x1="550.54" y1="382.47" x2="552.96" y2="373.75"/><line class="cls-10" x1="558.28" y1="382.67" x2="560.68" y2="379.87"/><line class="cls-10" x1="567.86" y1="385.73" x2="566.9" y2="382.32"/><line class="cls-10" x1="563.35" y1="382.82" x2="566.22" y2="374.21"/><line class="cls-10" x1="569.4" y1="383.05" x2="567.41" y2="374.21"/><line class="cls-10" x1="578.72" y1="383.19" x2="575.48" y2="374.61"/><line class="cls-10" x1="544.96" y1="374.76" x2="547.38" y2="366.04"/><line class="cls-10" x1="549.84" y1="373.61" x2="552.24" y2="370.81"/><line class="cls-10" x1="560.81" y1="375.39" x2="556.11" y2="368.84"/><line class="cls-10" x1="517.47" y1="325.47" x2="514.94" y2="329.99"/><line class="cls-10" x1="504.79" y1="327.73" x2="507.4" y2="332.24"/><line class="cls-10" x1="476.12" y1="325.47" x2="478.73" y2="329.98"/><line class="cls-10" x1="486.54" y1="327.75" x2="483.49" y2="332.22"/><line class="cls-10" x1="502.3" y1="325.47" x2="499.77" y2="329.99"/><line class="cls-10" x1="490.46" y1="325.47" x2="493.06" y2="329.98"/><line class="cls-10" x1="473.9" y1="329.04" x2="470.84" y2="333.51"/><line class="cls-10" x1="513.22" y1="330.31" x2="515.83" y2="334.82"/><line class="cls-10" x1="509.89" y1="332.25" x2="507.36" y2="336.76"/><line class="cls-10" x1="500.88" y1="332.27" x2="498.17" y2="333.74"/><line class="cls-10" x1="489.63" y1="330.85" x2="490.86" y2="332.59"/><line class="cls-10" x1="494.97" y1="332.27" x2="491.92" y2="336.74"/><line class="cls-10" x1="487.93" y1="332.25" x2="490.54" y2="336.76"/><line class="cls-10" x1="477.08" y1="332.33" x2="481.14" y2="336.68"/><line class="cls-10" x1="516.63" y1="336.12" x2="514.1" y2="340.64"/><line class="cls-10" x1="510.99" y1="336.79" x2="508.29" y2="338.26"/><line class="cls-10" x1="498.18" y1="336.05" x2="503.85" y2="339.34"/><line class="cls-10" x1="469.53" y1="350.68" x2="472.35" y2="346.2"/><line class="cls-10" x1="482.36" y1="348.6" x2="480.04" y2="344.05"/><line class="cls-10" x1="510.86" y1="351.25" x2="508.55" y2="346.7"/><line class="cls-10" x1="500.59" y1="348.83" x2="503.94" y2="344.4"/><line class="cls-10" x1="484.7" y1="350.89" x2="487.52" y2="346.41"/><line class="cls-10" x1="496.54" y1="351.05" x2="494.22" y2="346.5"/><line class="cls-10" x1="513.32" y1="347.71" x2="516.66" y2="343.28"/><line class="cls-10" x1="474.1" y1="345.9" x2="471.78" y2="341.35"/><line class="cls-10" x1="477.55" y1="344.01" x2="480.37" y2="339.53"/><line class="cls-10" x1="486.56" y1="344.11" x2="489.36" y2="342.67"/><line class="cls-10" x1="497.7" y1="345.69" x2="496.59" y2="343.93"/><line class="cls-10" x1="492.46" y1="344.19" x2="495.8" y2="339.77"/><line class="cls-10" x1="499.5" y1="344.31" x2="497.19" y2="339.76"/><line class="cls-10" x1="510.34" y1="344.38" x2="506.57" y2="339.97"/><line class="cls-10" x1="471.06" y1="340.05" x2="473.88" y2="335.57"/><line class="cls-10" x1="476.74" y1="339.46" x2="479.54" y2="338.02"/><line class="cls-10" x1="489.5" y1="340.37" x2="484.04" y2="337"/><line class="cls-10" x1="467.03" y1="361.44" x2="469.85" y2="356.95"/><line class="cls-10" x1="479.86" y1="359.35" x2="477.54" y2="354.8"/><line class="cls-10" x1="508.36" y1="362" x2="506.05" y2="357.45"/><line class="cls-10" x1="498.1" y1="359.58" x2="501.44" y2="355.15"/><line class="cls-10" x1="482.2" y1="361.64" x2="485.02" y2="357.16"/><line class="cls-10" x1="494.04" y1="361.8" x2="491.72" y2="357.26"/><line class="cls-10" x1="510.82" y1="358.46" x2="514.16" y2="354.03"/><line class="cls-10" x1="471.6" y1="356.65" x2="469.28" y2="352.11"/><line class="cls-10" x1="475.05" y1="354.77" x2="477.87" y2="350.28"/><line class="cls-10" x1="484.06" y1="354.86" x2="486.86" y2="353.43"/><line class="cls-10" x1="495.21" y1="356.44" x2="494.09" y2="354.69"/><line class="cls-10" x1="489.96" y1="354.95" x2="493.3" y2="350.52"/><line class="cls-10" x1="497" y1="355.06" x2="494.69" y2="350.52"/><line class="cls-10" x1="507.85" y1="355.13" x2="504.07" y2="350.73"/><line class="cls-10" x1="468.56" y1="350.8" x2="471.38" y2="346.32"/><line class="cls-10" x1="474.24" y1="350.21" x2="477.04" y2="348.77"/><line class="cls-10" x1="487" y1="351.12" x2="481.54" y2="347.76"/><path class="cls-1" d="M553.69,165.66c36.85-11.89,54.49-22.23,62.15-30.5,12.77-13.79-2.19-21.84-2.19-21.84,8.33-19.83-15.82-25.38-15.82-25.38,2.5,19.83,0,29.35,0,29.35l-72.45,39.65-69.94-21.41s.83-4.76,3.33-31.73c0,0-22.48-.79-15,11.11,0,0-59.12,31.72,59.12,50.75"/><path class="cls-1" d="M605.32,223.56s7.5,12.69,0,32.51c0,0-93.26,20.62-144.89-4,0,0-6.54-4.25-5.35-20.76"/><path class="cls-1" d="M616.15,220.39s13.32-93.59-10-78.52-22.48,9.52-18.31,61.07c0,0-7.5-3.17-25.82,22.2,0,0-9.16-7.93,0,19.83,0,0,23.9-3.25,39.94-10.73C609.7,230.64,615.61,226.06,616.15,220.39Z"/><path class="cls-4" d="M562,156.94s-5.83,19,0,35.69,0,7.93,0,7.93"/><path class="cls-5" d="M481.25,156.94s4.16,38.07,2.5,46"/><ellipse class="cls-6" cx="562.44" cy="156.54" rx="2.91" ry="2.78"/><ellipse class="cls-5" cx="481.67" cy="156.54" rx="2.91" ry="2.78"/><path class="cls-21" d="M560.87,207.7l-52.66,3.17S481.45,245,516,256.07c0,0,56.32,1.09,53.2-12.94C569.18,243.13,573,227.52,560.87,207.7Z"/><path class="cls-8" d="M534.12,261.16a57.48,57.48,0,0,1-6.24-5.09A42.28,42.28,0,0,1,534.12,261.16Z"/><path class="cls-8" d="M522.89,258.45a58.48,58.48,0,0,1,6.87,5.8A46.34,46.34,0,0,1,522.89,258.45Z"/><path class="cls-9" d="M482.6,220.12l16.14,20.09s15,0,14.15,4-7.49,3.17-7.49,3.17,10,8.72,6.66,8.72c-1.18,0-2.88-.89-4.58-2a41.9,41.9,0,0,0-6.24-5.08,58,58,0,0,0,6.24,5.08c1.63,1.73,2.6,3.47,1.25,4.43s-3.45.06-5.62-1.34a57.93,57.93,0,0,0-6.87-5.79,46.57,46.57,0,0,0,6.87,5.79c2.06,2.16,3.17,4.17.62,4.52-5.83.79-18.32-11.11-18.32-11.11l-25.56-16.45,20.42-16.86Z"/><path class="cls-8" d="M480.27,217.21l-2-2.54L470,204.4l-3.73-4.63s9.63,21.94,10.23-38.21c0,0-31.43-9.15-37.06-14.42,0,0-16.47,64.52,15.18,83.56l5.24,3.37"/><line class="cls-10" x1="485.67" y1="246.16" x2="483.34" y2="243.4"/><line class="cls-10" x1="488" y1="243.2" x2="484.1" y2="241.15"/><line class="cls-10" x1="498.32" y1="240.46" x2="494.42" y2="238.41"/><line class="cls-10" x1="493.57" y1="240.67" x2="491.43" y2="237.87"/><line class="cls-10" x1="490.31" y1="244.07" x2="487.98" y2="241.3"/><line class="cls-10" x1="493.94" y1="242.43" x2="490.04" y2="240.38"/><line class="cls-10" x1="496.55" y1="238.24" x2="494.41" y2="235.43"/><line class="cls-10" x1="483.64" y1="242.99" x2="479.74" y2="240.93"/><line class="cls-10" x1="483.33" y1="241.49" x2="481" y2="238.73"/><line class="cls-10" x1="486.07" y1="240.24" x2="485.89" y2="239.08"/><line class="cls-10" x1="490.49" y1="239.45" x2="488.92" y2="238.69"/><line class="cls-10" x1="487.88" y1="239.42" x2="485.74" y2="236.61"/><line class="cls-10" x1="490.05" y1="238.46" x2="486.15" y2="236.41"/><line class="cls-10" x1="493.31" y1="236.92" x2="489.08" y2="235.16"/><line class="cls-10" x1="478.61" y1="240.35" x2="476.28" y2="237.59"/><line class="cls-10" x1="479.87" y1="239.22" x2="479.69" y2="238.06"/><line class="cls-10" x1="484.3" y1="237.85" x2="480.3" y2="236.87"/><line class="cls-10" x1="483.01" y1="226.08" x2="485.23" y2="228.86"/><line class="cls-10" x1="480.52" y1="228.96" x2="484.35" y2="231.07"/><line class="cls-10" x1="469.98" y1="231.48" x2="473.81" y2="233.59"/><line class="cls-10" x1="474.78" y1="231.35" x2="476.8" y2="234.18"/><line class="cls-10" x1="478.23" y1="228.06" x2="480.44" y2="230.84"/><line class="cls-10" x1="474.49" y1="229.61" x2="478.33" y2="231.72"/><line class="cls-10" x1="471.66" y1="233.71" x2="473.68" y2="236.53"/><line class="cls-10" x1="484.9" y1="229.26" x2="488.73" y2="231.37"/><line class="cls-10" x1="485.14" y1="230.75" x2="487.36" y2="233.53"/><line class="cls-10" x1="482.32" y1="231.94" x2="482.45" y2="233.09"/><line class="cls-10" x1="477.82" y1="232.63" x2="479.37" y2="233.42"/><line class="cls-10" x1="480.45" y1="232.71" x2="482.47" y2="235.53"/><line class="cls-10" x1="478.22" y1="233.62" x2="482.05" y2="235.72"/><line class="cls-10" x1="474.85" y1="235.07" x2="479.04" y2="236.91"/><line class="cls-10" x1="489.85" y1="231.97" x2="492.07" y2="234.75"/><line class="cls-10" x1="488.52" y1="233.07" x2="488.65" y2="234.22"/><line class="cls-10" x1="483.99" y1="234.34" x2="487.97" y2="235.39"/><line class="cls-10" x1="476.38" y1="219.99" x2="478.6" y2="222.77"/><line class="cls-10" x1="473.89" y1="222.87" x2="477.73" y2="224.98"/><line class="cls-10" x1="463.35" y1="225.39" x2="467.18" y2="227.5"/><line class="cls-10" x1="468.15" y1="225.27" x2="470.17" y2="228.09"/><line class="cls-10" x1="471.6" y1="221.97" x2="473.82" y2="224.75"/><line class="cls-10" x1="467.87" y1="223.52" x2="471.7" y2="225.63"/><line class="cls-10" x1="465.03" y1="227.62" x2="467.05" y2="230.44"/><line class="cls-10" x1="478.27" y1="223.17" x2="482.11" y2="225.28"/><line class="cls-10" x1="478.51" y1="224.66" x2="480.73" y2="227.44"/><line class="cls-10" x1="475.69" y1="225.85" x2="475.82" y2="227"/><line class="cls-10" x1="471.19" y1="226.54" x2="472.74" y2="227.33"/><line class="cls-10" x1="473.83" y1="226.62" x2="475.85" y2="229.44"/><line class="cls-10" x1="471.59" y1="227.53" x2="475.43" y2="229.64"/><line class="cls-10" x1="468.23" y1="228.99" x2="472.41" y2="230.82"/><line class="cls-10" x1="483.22" y1="225.88" x2="485.44" y2="228.66"/><line class="cls-10" x1="481.89" y1="226.98" x2="482.02" y2="228.13"/><line class="cls-10" x1="477.36" y1="228.25" x2="481.34" y2="229.3"/><polyline class="cls-3" points="460.45 234.26 451.69 229.47 475.24 210.47 482.5 218.29"/><path class="cls-2" d="M600.33,117.29S602.82,13.39,515.39,38c0,0-55.79-2.38-60.78,96.75l73.27,22.21Z"/><path class="cls-11" d="M535.26,73.67l5.82,8.72s1.67-4.76,20.82-8.72S561.07,57,535.26,73.67Z"/><path class="cls-12" d="M580.46,93.24c-7-5.28-23.75-15.86-36.6-6.1a6,6,0,0,0-2.29,3.3c-.73,3,.73,8.3,16.11,12.52l.32.1c1.65.55,17.84,5.73,23.64-1.35A5.92,5.92,0,0,0,580.46,93.24Z"/><ellipse class="cls-13" cx="562.84" cy="94.37" rx="9.65" ry="5.77" transform="translate(216.26 547.78) rotate(-62.12)"/><polyline class="cls-14" points="524.53 84.77 525.17 111.34 534.13 111.34"/><path class="cls-15" d="M557.86,131.56s-8.33-15.86-38.31-11.1c0,0-35-11.11-36.63,11.1,0,0-2.59,7.4,9,9a17,17,0,0,0,14.13-5c2.85-2.81,10.83-4.16,32.69,5.56C538.71,141.08,561.19,143.46,557.86,131.56Z"/><path class="cls-14" d="M557,125.22s12.49,9.31,5,11.39"/><path class="cls-14" d="M480.33,128.5s-3.43,6.51,3.5,16"/><line class="cls-12" x1="553.28" y1="126.41" x2="551.95" y2="140.23"/><line class="cls-12" x1="549.23" y1="123.78" x2="548.1" y2="141.47"/><line class="cls-12" x1="544.23" y1="121.4" x2="543.1" y2="141.47"/><line class="cls-12" x1="539.23" y1="120.61" x2="538.1" y2="140.68"/><line class="cls-12" x1="535.07" y1="119.81" x2="533.94" y2="138.3"/><line class="cls-12" x1="530.91" y1="119.81" x2="529.78" y2="137.51"/><line class="cls-12" x1="526.74" y1="119.81" x2="525.61" y2="135.92"/><line class="cls-12" x1="522.58" y1="120.06" x2="521.45" y2="133.54"/><line class="cls-12" x1="517.58" y1="119.81" x2="516.45" y2="133.54"/><line class="cls-12" x1="513.42" y1="120.06" x2="512.29" y2="133.54"/><line class="cls-12" x1="510.09" y1="118.23" x2="508.96" y2="133.54"/><line class="cls-12" x1="506.76" y1="118.23" x2="505.63" y2="135.13"/><line class="cls-12" x1="502.6" y1="116.89" x2="501.47" y2="139.1"/><line class="cls-12" x1="498.43" y1="117.68" x2="497.3" y2="139.89"/><line class="cls-12" x1="494.27" y1="118.48" x2="493.14" y2="140.68"/><line class="cls-12" x1="489.27" y1="120.85" x2="488.14" y2="139.89"/><path class="cls-12" d="M474.82,91.34c8.19-5.62,23.39-13.32,35-3.4,0,0,8.33,8.73-15,15.07,0,0-9.08,3.17-16.47,2.21A7.61,7.61,0,0,1,474.82,91.34Z"/><ellipse class="cls-13" cx="489.81" cy="94.37" rx="5.77" ry="9.65" transform="translate(12.71 239.96) rotate(-27.88)"/><path class="cls-11" d="M517.89,70.49l-5.83,8.73s-1.66-4.76-20.82-8.73S492.08,53.84,517.89,70.49Z"/><path class="cls-12" d="M551.3,42.56s.94,11.75-8.49,17.51"/><path class="cls-16" d="M595.75,84s-89.31-34.11-129.9-7.14c0,0,19.48-47.59,76.31-42.83C542.16,34,586.82,26.08,595.75,84Z"/><polygon class="cls-2" points="556.19 57.01 525.38 54.63 525.38 60.98 556.19 64.15 556.19 57.01"/><path class="cls-10" d="M546.2,41.94s4.16,11.11-3.33,19"/><path class="cls-10" d="M542.87,47.49s-5.83.8-5,11.11"/><path class="cls-17" d="M534.54,49.87s.84,6.35-2.49,8.73"/><path class="cls-17" d="M530.38,49.08a7.79,7.79,0,0,1-.83,9.52"/><path class="cls-10" d="M532.05,42.74s-5.83,10.31-4.17,16.65"/><path class="cls-10" d="M567,45.91s-9.16,4-13.33,16.65"/><path class="cls-10" d="M557.86,45.91s0,7.93-9.16,13.48"/><path class="cls-16" d="M466.87,363.57c23,.05,28.29.45,52.09-1.51.94,4.49-10.58,13.82-23.55,15C482.07,378.19,466.45,368.21,466.87,363.57Z"/><path class="cls-16" d="M588.09,390c-4.3,9.7-4.3,10.55-9.22,20.67,12.91-.42,25.21-.42,27,5.07,1.85,5.9-28.89,6.32-62.08,3.37-4.31-11.81-5.54-14.77-9.84-28.27C561.05,390.42,567.81,390.42,588.09,390Z"/><ellipse class="cls-19" cx="1238.95" cy="410.07" rx="91.55" ry="41.93"/><path class="cls-16" d="M1294.91,365.5c1.54,2.91.9,6,0,10-2.15,9.58-9.48,24.09-18,24-10.91-.11-19-22-16-35C1267.86,355,1290.17,356.59,1294.91,365.5Z"/><path class="cls-2" d="M1170,318s-1.47,70.77,15.43,74.5H1220s-5.14-27.57,0-70C1220,322.47,1173.71,320.23,1170,318Z"/><line class="cls-10" x1="1174.08" y1="321" x2="1176.04" y2="328.18"/><line class="cls-10" x1="1183.87" y1="324.6" x2="1181.86" y2="331.76"/><line class="cls-10" x1="1205.99" y1="321.01" x2="1203.97" y2="328.17"/><line class="cls-10" x1="1197.95" y1="324.63" x2="1200.3" y2="331.73"/><line class="cls-10" x1="1185.79" y1="321" x2="1187.74" y2="328.18"/><line class="cls-10" x1="1194.93" y1="321.01" x2="1192.92" y2="328.17"/><line class="cls-10" x1="1207.7" y1="326.68" x2="1210.06" y2="333.78"/><line class="cls-10" x1="1177.37" y1="328.7" x2="1175.35" y2="335.87"/><line class="cls-10" x1="1179.94" y1="331.77" x2="1181.89" y2="338.95"/><line class="cls-10" x1="1186.89" y1="331.81" x2="1188.98" y2="334.15"/><line class="cls-10" x1="1195.56" y1="329.55" x2="1194.61" y2="332.31"/><line class="cls-10" x1="1191.44" y1="331.81" x2="1193.8" y2="338.91"/><line class="cls-10" x1="1196.88" y1="331.78" x2="1194.87" y2="338.94"/><line class="cls-10" x1="1205.24" y1="331.9" x2="1202.11" y2="338.82"/><line class="cls-10" x1="1174.74" y1="337.92" x2="1176.69" y2="345.1"/><line class="cls-10" x1="1179.09" y1="338.99" x2="1181.17" y2="341.33"/><line class="cls-10" x1="1188.97" y1="337.81" x2="1184.59" y2="343.04"/><line class="cls-10" x1="1211.07" y1="361.07" x2="1208.9" y2="353.94"/><line class="cls-10" x1="1201.18" y1="357.75" x2="1202.96" y2="350.53"/><line class="cls-10" x1="1179.19" y1="361.96" x2="1180.97" y2="354.74"/><line class="cls-10" x1="1187.11" y1="358.11" x2="1184.53" y2="351.08"/><line class="cls-10" x1="1199.37" y1="361.4" x2="1197.2" y2="354.28"/><line class="cls-10" x1="1190.24" y1="361.65" x2="1192.02" y2="354.43"/><line class="cls-10" x1="1177.29" y1="356.34" x2="1174.71" y2="349.31"/><line class="cls-10" x1="1207.55" y1="353.46" x2="1209.34" y2="346.24"/><line class="cls-10" x1="1204.88" y1="350.47" x2="1202.71" y2="343.35"/><line class="cls-10" x1="1197.93" y1="350.63" x2="1195.78" y2="348.34"/><line class="cls-10" x1="1189.34" y1="353.13" x2="1190.2" y2="350.34"/><line class="cls-10" x1="1193.38" y1="350.75" x2="1190.8" y2="343.72"/><line class="cls-10" x1="1187.95" y1="350.94" x2="1189.74" y2="343.72"/><line class="cls-10" x1="1179.58" y1="351.05" x2="1182.5" y2="344.05"/><line class="cls-10" x1="1209.89" y1="344.17" x2="1207.72" y2="337.05"/><line class="cls-10" x1="1205.51" y1="343.23" x2="1203.35" y2="340.94"/><line class="cls-10" x1="1195.66" y1="344.68" x2="1199.88" y2="339.33"/><line class="cls-10" x1="1213" y1="378.15" x2="1210.82" y2="371.03"/><line class="cls-10" x1="1203.1" y1="374.84" x2="1204.89" y2="367.61"/><line class="cls-10" x1="1181.11" y1="379.05" x2="1182.9" y2="371.83"/><line class="cls-10" x1="1189.03" y1="375.2" x2="1186.46" y2="368.17"/><line class="cls-10" x1="1201.3" y1="378.48" x2="1199.12" y2="371.36"/><line class="cls-10" x1="1192.17" y1="378.74" x2="1193.95" y2="371.51"/><line class="cls-10" x1="1179.22" y1="373.43" x2="1176.64" y2="366.39"/><line class="cls-10" x1="1209.48" y1="370.55" x2="1211.26" y2="363.33"/><line class="cls-10" x1="1206.81" y1="367.55" x2="1204.64" y2="360.43"/><line class="cls-10" x1="1199.86" y1="367.71" x2="1197.7" y2="365.43"/><line class="cls-10" x1="1191.26" y1="370.22" x2="1192.13" y2="367.43"/><line class="cls-10" x1="1195.31" y1="367.84" x2="1192.73" y2="360.81"/><line class="cls-10" x1="1189.88" y1="368.03" x2="1191.66" y2="360.8"/><line class="cls-10" x1="1181.51" y1="368.14" x2="1184.43" y2="361.14"/><line class="cls-10" x1="1211.82" y1="361.25" x2="1209.64" y2="354.13"/><line class="cls-10" x1="1207.44" y1="360.31" x2="1205.28" y2="358.03"/><line class="cls-10" x1="1197.59" y1="361.77" x2="1201.8" y2="356.42"/><path class="cls-2" d="M1245.52,313.19l62.46,1.38s-7.5,36.4-4.17,41.93h-51.62S1258,347.75,1245.52,313.19Z"/><line class="cls-10" x1="1253.44" y1="317.97" x2="1255.96" y2="322.49"/><line class="cls-10" x1="1266.12" y1="320.23" x2="1263.51" y2="324.74"/><line class="cls-10" x1="1294.78" y1="317.97" x2="1292.18" y2="322.48"/><line class="cls-10" x1="1284.37" y1="320.25" x2="1287.42" y2="324.72"/><line class="cls-10" x1="1268.61" y1="317.97" x2="1271.14" y2="322.49"/><line class="cls-10" x1="1280.45" y1="317.97" x2="1277.84" y2="322.48"/><line class="cls-10" x1="1297.01" y1="321.54" x2="1300.07" y2="326.01"/><line class="cls-10" x1="1257.69" y1="322.81" x2="1255.08" y2="327.32"/><line class="cls-10" x1="1261.02" y1="324.75" x2="1263.55" y2="329.26"/><line class="cls-10" x1="1270.03" y1="324.77" x2="1272.74" y2="326.24"/><line class="cls-10" x1="1281.27" y1="323.35" x2="1280.04" y2="325.09"/><line class="cls-10" x1="1275.93" y1="324.77" x2="1278.99" y2="329.24"/><line class="cls-10" x1="1282.98" y1="324.75" x2="1280.37" y2="329.26"/><line class="cls-10" x1="1293.82" y1="324.83" x2="1289.76" y2="329.18"/><line class="cls-10" x1="1254.28" y1="328.62" x2="1256.81" y2="333.14"/><line class="cls-10" x1="1259.92" y1="329.29" x2="1262.62" y2="330.76"/><line class="cls-10" x1="1272.73" y1="328.55" x2="1267.06" y2="331.84"/><line class="cls-10" x1="1301.38" y1="343.18" x2="1298.56" y2="338.7"/><line class="cls-10" x1="1288.55" y1="341.1" x2="1290.87" y2="336.55"/><line class="cls-10" x1="1260.05" y1="343.75" x2="1262.36" y2="339.2"/><line class="cls-10" x1="1270.31" y1="341.33" x2="1266.97" y2="336.9"/><line class="cls-10" x1="1286.21" y1="343.39" x2="1283.39" y2="338.91"/><line class="cls-10" x1="1274.37" y1="343.55" x2="1276.69" y2="339"/><line class="cls-10" x1="1257.59" y1="340.21" x2="1254.25" y2="335.78"/><line class="cls-10" x1="1296.81" y1="338.4" x2="1299.13" y2="333.85"/><line class="cls-10" x1="1293.36" y1="336.51" x2="1290.54" y2="332.03"/><line class="cls-10" x1="1284.35" y1="336.61" x2="1281.55" y2="335.17"/><line class="cls-10" x1="1273.2" y1="338.19" x2="1274.32" y2="336.43"/><line class="cls-10" x1="1278.45" y1="336.69" x2="1275.11" y2="332.27"/><line class="cls-10" x1="1271.41" y1="336.81" x2="1273.72" y2="332.26"/><line class="cls-10" x1="1260.56" y1="336.88" x2="1264.34" y2="332.47"/><line class="cls-10" x1="1299.85" y1="332.55" x2="1297.03" y2="328.07"/><line class="cls-10" x1="1294.17" y1="331.96" x2="1291.37" y2="330.52"/><line class="cls-10" x1="1281.41" y1="332.87" x2="1286.87" y2="329.5"/><line class="cls-10" x1="1303.88" y1="353.94" x2="1301.06" y2="349.45"/><line class="cls-10" x1="1291.05" y1="351.85" x2="1293.37" y2="347.3"/><line class="cls-10" x1="1262.55" y1="354.5" x2="1264.86" y2="349.95"/><line class="cls-10" x1="1272.81" y1="352.08" x2="1269.47" y2="347.65"/><line class="cls-10" x1="1288.71" y1="354.14" x2="1285.89" y2="349.66"/><line class="cls-10" x1="1276.87" y1="354.3" x2="1279.19" y2="349.76"/><line class="cls-10" x1="1260.09" y1="350.96" x2="1256.75" y2="346.53"/><line class="cls-10" x1="1299.31" y1="349.15" x2="1301.63" y2="344.61"/><line class="cls-10" x1="1295.85" y1="347.27" x2="1293.03" y2="342.78"/><line class="cls-10" x1="1286.85" y1="347.36" x2="1284.05" y2="345.93"/><line class="cls-10" x1="1275.7" y1="348.94" x2="1276.82" y2="347.19"/><line class="cls-10" x1="1280.95" y1="347.45" x2="1277.61" y2="343.02"/><line class="cls-10" x1="1273.91" y1="347.56" x2="1276.22" y2="343.02"/><line class="cls-10" x1="1263.06" y1="347.63" x2="1266.84" y2="343.23"/><line class="cls-10" x1="1302.35" y1="343.3" x2="1299.53" y2="338.82"/><line class="cls-10" x1="1296.67" y1="342.71" x2="1293.87" y2="341.27"/><line class="cls-10" x1="1283.9" y1="343.62" x2="1289.36" y2="340.26"/><path class="cls-16" d="M1304,354.07c-23,.05-28.29.45-52.09-1.51-.94,4.49,10.58,13.82,23.55,15C1288.84,368.69,1304.46,358.71,1304,354.07Z"/><path class="cls-16" d="M1172.83,380c4.55,9.7,4.55,10.55,9.75,20.67-13.65-.42-26.64-.42-28.59,5.07-2,5.9,30.54,6.32,65.62,3.37,4.54-11.81,5.84-14.77,10.39-28.27C1201.42,380.42,1194.27,380.42,1172.83,380Z"/></g><g id="Layer_1" data-name="Layer 1"><ellipse class="cls-19" cx="170.95" cy="420.07" rx="91.55" ry="41.93"/><polygon class="cls-1" points="242.49 149.57 204.45 164.46 151.19 164.46 119.91 158.19 119.91 242.83 239.11 242.83 242.49 149.57"/><path class="cls-2" d="M137.66,224.8l-16.91,14.11,13.53,8.62s18.6,15.67,19.44,8.62l-8.45-6.27s13.52,10.19,13.52,3.92c0,0,7.61,4.7,3.39-3.92l-6.77-5.49s9.3.79,6.77-5.48c0,0-3.39-1.57-13.53-1.57Z"/><path class="cls-4" d="M254.86,249.88s4.21,47.81-7.58,65.83l-55.56,4.7L185,296.9s-6.74,4.7-9.26,23.51l-63.15,2.35s-14.77-73.66-2.75-72.88S141.2,278.09,254.86,249.88Z"/><path class="cls-3" d="M204.45,293s-13.53,11.76-35.51,0"/><path class="cls-2" d="M248,315.32S249.6,393.87,230.6,398H191.76s5.79-30.59,0-77.72C191.76,320.28,243.82,317.8,248,315.32Z"/><path class="cls-2" d="M174.86,319.63,111.45,322s7.61,61.91,4.23,71.32h52.41S162.18,378.41,174.86,319.63Z"/><line class="cls-10" x1="244.6" y1="322.37" x2="242.03" y2="331.06"/><line class="cls-10" x1="231.72" y1="326.72" x2="234.37" y2="335.4"/><line class="cls-10" x1="202.62" y1="322.38" x2="205.27" y2="331.05"/><line class="cls-10" x1="213.2" y1="326.76" x2="210.1" y2="335.36"/><line class="cls-10" x1="229.2" y1="322.37" x2="226.63" y2="331.06"/><line class="cls-10" x1="217.17" y1="322.38" x2="219.82" y2="331.05"/><line class="cls-10" x1="200.36" y1="329.25" x2="197.26" y2="337.84"/><line class="cls-10" x1="240.28" y1="331.69" x2="242.93" y2="340.36"/><line class="cls-10" x1="236.9" y1="335.4" x2="234.33" y2="344.09"/><line class="cls-10" x1="227.75" y1="335.45" x2="225.01" y2="338.29"/><line class="cls-10" x1="216.34" y1="332.71" x2="217.59" y2="336.06"/><line class="cls-10" x1="221.76" y1="335.45" x2="218.66" y2="344.05"/><line class="cls-10" x1="214.6" y1="335.41" x2="217.25" y2="344.09"/><line class="cls-10" x1="203.6" y1="335.56" x2="207.72" y2="343.93"/><line class="cls-10" x1="243.75" y1="342.85" x2="241.18" y2="351.54"/><line class="cls-10" x1="238.02" y1="344.14" x2="235.28" y2="346.97"/><line class="cls-10" x1="225.01" y1="342.72" x2="230.77" y2="349.04"/><line class="cls-10" x1="195.93" y1="370.85" x2="198.79" y2="362.24"/><line class="cls-10" x1="208.95" y1="366.84" x2="206.6" y2="358.1"/><line class="cls-10" x1="237.89" y1="371.94" x2="235.54" y2="363.2"/><line class="cls-10" x1="227.47" y1="367.28" x2="230.86" y2="358.77"/><line class="cls-10" x1="211.33" y1="371.25" x2="214.19" y2="362.64"/><line class="cls-10" x1="223.35" y1="371.56" x2="220.99" y2="362.82"/><line class="cls-10" x1="240.38" y1="365.13" x2="243.78" y2="356.62"/><line class="cls-10" x1="200.56" y1="361.66" x2="198.21" y2="352.92"/><line class="cls-10" x1="204.07" y1="358.03" x2="206.93" y2="349.41"/><line class="cls-10" x1="213.22" y1="358.22" x2="216.06" y2="355.46"/><line class="cls-10" x1="224.53" y1="361.25" x2="223.4" y2="357.88"/><line class="cls-10" x1="219.21" y1="358.38" x2="222.6" y2="349.86"/><line class="cls-10" x1="226.36" y1="358.6" x2="224.01" y2="349.86"/><line class="cls-10" x1="237.36" y1="358.73" x2="233.53" y2="350.26"/><line class="cls-10" x1="197.48" y1="350.41" x2="200.34" y2="341.79"/><line class="cls-10" x1="203.25" y1="349.27" x2="206.09" y2="346.51"/><line class="cls-10" x1="216.2" y1="351.03" x2="210.66" y2="344.55"/><line class="cls-10" x1="193.39" y1="391.53" x2="196.25" y2="382.91"/><line class="cls-10" x1="206.41" y1="387.52" x2="204.06" y2="378.78"/><line class="cls-10" x1="235.35" y1="392.61" x2="233" y2="383.87"/><line class="cls-10" x1="224.93" y1="387.96" x2="228.32" y2="379.45"/><line class="cls-10" x1="208.79" y1="391.93" x2="211.65" y2="383.31"/><line class="cls-10" x1="220.81" y1="392.24" x2="218.46" y2="383.5"/><line class="cls-10" x1="237.85" y1="385.81" x2="241.24" y2="377.3"/><line class="cls-10" x1="198.03" y1="382.33" x2="195.68" y2="373.59"/><line class="cls-10" x1="201.54" y1="378.7" x2="204.4" y2="370.09"/><line class="cls-10" x1="210.68" y1="378.89" x2="213.52" y2="376.13"/><line class="cls-10" x1="222" y1="381.93" x2="220.86" y2="378.55"/><line class="cls-10" x1="216.67" y1="379.05" x2="220.06" y2="370.54"/><line class="cls-10" x1="223.82" y1="379.28" x2="221.47" y2="370.54"/><line class="cls-10" x1="234.83" y1="379.41" x2="230.99" y2="370.94"/><line class="cls-10" x1="194.95" y1="371.08" x2="197.81" y2="362.46"/><line class="cls-10" x1="200.71" y1="369.94" x2="203.55" y2="367.18"/><line class="cls-10" x1="213.67" y1="371.7" x2="208.13" y2="365.23"/><line class="cls-10" x1="166.82" y1="322.37" x2="164.26" y2="330.96"/><line class="cls-10" x1="153.95" y1="326.67" x2="156.59" y2="335.25"/><line class="cls-10" x1="124.84" y1="322.38" x2="127.49" y2="330.96"/><line class="cls-10" x1="135.42" y1="326.71" x2="132.32" y2="335.21"/><line class="cls-10" x1="151.42" y1="322.37" x2="148.85" y2="330.96"/><line class="cls-10" x1="139.39" y1="322.38" x2="142.04" y2="330.96"/><line class="cls-10" x1="122.58" y1="329.17" x2="119.48" y2="337.67"/><line class="cls-10" x1="162.5" y1="331.58" x2="165.15" y2="340.16"/><line class="cls-10" x1="159.12" y1="335.26" x2="156.55" y2="343.85"/><line class="cls-10" x1="149.97" y1="335.3" x2="147.23" y2="338.11"/><line class="cls-10" x1="138.56" y1="332.6" x2="139.81" y2="335.91"/><line class="cls-10" x1="143.98" y1="335.3" x2="140.88" y2="343.8"/><line class="cls-10" x1="136.83" y1="335.27" x2="139.48" y2="343.84"/><line class="cls-10" x1="125.82" y1="335.42" x2="129.94" y2="343.69"/><line class="cls-10" x1="165.97" y1="342.62" x2="163.4" y2="351.21"/><line class="cls-10" x1="160.24" y1="343.9" x2="157.5" y2="346.7"/><line class="cls-10" x1="147.23" y1="342.49" x2="152.99" y2="348.75"/><line class="cls-10" x1="118.15" y1="370.31" x2="121.01" y2="361.79"/><line class="cls-10" x1="131.17" y1="366.34" x2="128.82" y2="357.7"/><line class="cls-10" x1="160.11" y1="371.39" x2="157.76" y2="362.74"/><line class="cls-10" x1="149.69" y1="366.78" x2="153.08" y2="358.36"/><line class="cls-10" x1="133.55" y1="370.71" x2="136.41" y2="362.19"/><line class="cls-10" x1="145.57" y1="371.01" x2="143.22" y2="362.37"/><line class="cls-10" x1="162.61" y1="364.66" x2="166" y2="356.24"/><line class="cls-10" x1="122.79" y1="361.22" x2="120.43" y2="352.57"/><line class="cls-10" x1="126.29" y1="357.63" x2="129.16" y2="349.11"/><line class="cls-10" x1="135.44" y1="357.82" x2="138.28" y2="355.09"/><line class="cls-10" x1="146.75" y1="360.82" x2="145.62" y2="357.48"/><line class="cls-10" x1="141.43" y1="357.97" x2="144.82" y2="349.56"/><line class="cls-10" x1="148.58" y1="358.2" x2="146.23" y2="349.55"/><line class="cls-10" x1="159.59" y1="358.33" x2="155.75" y2="349.95"/><line class="cls-10" x1="119.7" y1="350.09" x2="122.57" y2="341.57"/><line class="cls-10" x1="125.47" y1="348.97" x2="128.31" y2="346.24"/><line class="cls-10" x1="138.43" y1="350.71" x2="132.88" y2="344.31"/><line class="cls-10" x1="115.61" y1="390.76" x2="118.48" y2="382.24"/><line class="cls-10" x1="128.64" y1="386.79" x2="126.28" y2="378.15"/><line class="cls-10" x1="157.58" y1="391.83" x2="155.22" y2="383.19"/><line class="cls-10" x1="147.15" y1="387.23" x2="150.55" y2="378.81"/><line class="cls-10" x1="131.01" y1="391.15" x2="133.88" y2="382.63"/><line class="cls-10" x1="143.03" y1="391.46" x2="140.68" y2="382.81"/><line class="cls-10" x1="160.07" y1="385.1" x2="163.46" y2="376.69"/><line class="cls-10" x1="120.25" y1="381.66" x2="117.9" y2="373.02"/><line class="cls-10" x1="123.76" y1="378.07" x2="126.62" y2="369.55"/><line class="cls-10" x1="132.9" y1="378.26" x2="135.74" y2="375.53"/><line class="cls-10" x1="144.22" y1="381.26" x2="143.08" y2="377.92"/><line class="cls-10" x1="138.89" y1="378.42" x2="142.29" y2="370"/><line class="cls-10" x1="146.04" y1="378.64" x2="143.69" y2="370"/><line class="cls-10" x1="157.05" y1="378.77" x2="153.22" y2="370.4"/><line class="cls-10" x1="117.17" y1="370.54" x2="120.03" y2="362.02"/><line class="cls-10" x1="122.93" y1="369.41" x2="125.77" y2="366.68"/><line class="cls-10" x1="135.89" y1="371.15" x2="130.35" y2="364.75"/><path class="cls-1" d="M203.6,164.46c37.41-11.76,55.32-22,63.1-30.14,13-13.63-2.23-21.59-2.23-21.59,8.45-19.59-16.06-25.08-16.06-25.08,2.53,19.6,0,29,0,29l-73.55,39.19-71-21.16s.85-4.71,3.38-31.35c0,0-22.82-.79-15.21,11,0,0-60,31.35,60,50.16"/><path class="cls-1" d="M256,221.67s7.6,12.54,0,32.13c0,0-94.69,20.38-147.11-3.92,0,0-6.64-4.2-5.43-20.52"/><path class="cls-1" d="M267,218.53s13.52-92.47-10.15-77.58-22.82,9.4-18.6,60.34c0,0-7.61-3.13-26.21,21.94,0,0-9.3-7.83,0,19.6,0,0,24.26-3.22,40.56-10.6C260.46,228.67,266.46,224.14,267,218.53Z"/><path class="cls-4" d="M212.05,155.84s-5.91,18.81,0,35.26,0,7.84,0,7.84"/><path class="cls-5" d="M130.05,155.84s4.23,37.61,2.54,45.45"/><ellipse class="cls-6" cx="212.48" cy="155.44" rx="2.96" ry="2.74"/><ellipse class="cls-5" cx="130.47" cy="155.44" rx="2.96" ry="2.74"/><path class="cls-22" d="M210.89,206l-53.47,3.14s-27.17,33.7,7.89,44.67c0,0,57.18,1.07,54-12.79C219.32,241,223.16,225.59,210.89,206Z"/><path class="cls-8" d="M183.73,258.82a57.91,57.91,0,0,1-6.34-5A42.47,42.47,0,0,1,183.73,258.82Z"/><path class="cls-8" d="M172.32,256.15a59,59,0,0,1,7,5.72A46.46,46.46,0,0,1,172.32,256.15Z"/><path class="cls-9" d="M131.42,218.27l16.38,19.85s15.22,0,14.38,3.92-7.61,3.14-7.61,3.14,10.14,8.62,6.76,8.62c-1.2,0-2.92-.89-4.65-2a42.47,42.47,0,0,0-6.34-5,57.91,57.91,0,0,0,6.34,5c1.65,1.71,2.64,3.43,1.27,4.38s-3.51.06-5.71-1.33a59.3,59.3,0,0,0-7-5.72,46.71,46.71,0,0,0,7,5.72c2.09,2.13,3.22,4.12.64,4.46-5.92.79-18.6-11-18.6-11l-25.95-16.25,20.72-16.66Z"/><path class="cls-8" d="M129.05,215.4,127,212.89l-8.37-10.15-3.78-4.58s9.78,21.68,10.38-37.75c0,0-31.9-9-37.62-14.26,0,0-16.72,63.76,15.41,82.57l5.33,3.34"/><line class="cls-10" x1="134.54" y1="244" x2="132.17" y2="241.27"/><line class="cls-10" x1="136.9" y1="241.08" x2="132.94" y2="239.05"/><line class="cls-10" x1="147.38" y1="238.37" x2="143.42" y2="236.34"/><line class="cls-10" x1="142.55" y1="238.58" x2="140.38" y2="235.81"/><line class="cls-10" x1="139.25" y1="241.93" x2="136.88" y2="239.2"/><line class="cls-10" x1="142.93" y1="240.32" x2="138.97" y2="238.29"/><line class="cls-10" x1="145.58" y1="236.18" x2="143.41" y2="233.4"/><line class="cls-10" x1="132.48" y1="240.87" x2="128.52" y2="238.84"/><line class="cls-10" x1="132.16" y1="239.39" x2="129.8" y2="236.66"/><line class="cls-10" x1="134.95" y1="238.15" x2="134.76" y2="237"/><line class="cls-10" x1="139.43" y1="237.37" x2="137.84" y2="236.62"/><line class="cls-10" x1="136.78" y1="237.35" x2="134.61" y2="234.57"/><line class="cls-10" x1="138.98" y1="236.4" x2="135.02" y2="234.37"/><line class="cls-10" x1="142.3" y1="234.88" x2="138" y2="233.13"/><line class="cls-10" x1="127.37" y1="238.27" x2="125" y2="235.54"/><line class="cls-10" x1="128.65" y1="237.14" x2="128.46" y2="236"/><line class="cls-10" x1="133.15" y1="235.79" x2="129.09" y2="234.82"/><line class="cls-10" x1="131.83" y1="224.16" x2="134.09" y2="226.91"/><line class="cls-10" x1="129.31" y1="227.01" x2="133.2" y2="229.09"/><line class="cls-10" x1="118.6" y1="229.49" x2="122.49" y2="231.58"/><line class="cls-10" x1="123.48" y1="229.37" x2="125.53" y2="232.16"/><line class="cls-10" x1="126.98" y1="226.11" x2="129.23" y2="228.87"/><line class="cls-10" x1="123.19" y1="227.64" x2="127.08" y2="229.73"/><line class="cls-10" x1="120.31" y1="231.7" x2="122.36" y2="234.49"/><line class="cls-10" x1="133.76" y1="227.31" x2="137.65" y2="229.39"/><line class="cls-10" x1="134" y1="228.77" x2="136.25" y2="231.52"/><line class="cls-10" x1="131.13" y1="229.95" x2="131.26" y2="231.09"/><line class="cls-10" x1="126.57" y1="230.63" x2="128.14" y2="231.41"/><line class="cls-10" x1="129.24" y1="230.71" x2="131.29" y2="233.5"/><line class="cls-10" x1="126.97" y1="231.61" x2="130.86" y2="233.69"/><line class="cls-10" x1="123.55" y1="233.05" x2="127.8" y2="234.86"/><line class="cls-10" x1="138.78" y1="229.98" x2="141.03" y2="232.73"/><line class="cls-10" x1="137.43" y1="231.07" x2="137.56" y2="232.21"/><line class="cls-10" x1="132.83" y1="232.32" x2="136.87" y2="233.36"/><line class="cls-10" x1="125.11" y1="218.14" x2="127.36" y2="220.89"/><line class="cls-10" x1="122.58" y1="220.99" x2="126.47" y2="223.07"/><line class="cls-10" x1="111.87" y1="223.48" x2="115.76" y2="225.56"/><line class="cls-10" x1="116.75" y1="223.35" x2="118.8" y2="226.15"/><line class="cls-10" x1="120.25" y1="220.1" x2="122.5" y2="222.85"/><line class="cls-10" x1="116.46" y1="221.63" x2="120.35" y2="223.71"/><line class="cls-10" x1="113.58" y1="225.68" x2="115.63" y2="228.47"/><line class="cls-10" x1="127.03" y1="221.29" x2="130.92" y2="223.37"/><line class="cls-10" x1="127.27" y1="222.76" x2="129.52" y2="225.51"/><line class="cls-10" x1="124.4" y1="223.93" x2="124.54" y2="225.07"/><line class="cls-10" x1="119.84" y1="224.62" x2="121.41" y2="225.39"/><line class="cls-10" x1="122.51" y1="224.69" x2="124.56" y2="227.48"/><line class="cls-10" x1="120.24" y1="225.59" x2="124.13" y2="227.67"/><line class="cls-10" x1="116.83" y1="227.03" x2="121.07" y2="228.84"/><line class="cls-10" x1="132.05" y1="223.96" x2="134.3" y2="226.71"/><line class="cls-10" x1="130.7" y1="225.05" x2="130.84" y2="226.19"/><line class="cls-10" x1="126.1" y1="226.31" x2="130.14" y2="227.34"/><polyline class="cls-3" points="108.93 232.25 100.04 227.51 123.94 208.74 131.32 216.47"/><path class="cls-2" d="M250.94,116.65S253.48,14,164.71,38.28c0,0-56.64-2.35-61.71,95.61l74.39,22Z"/><path class="cls-11" d="M184.88,73.55l5.92,8.62s1.69-4.7,21.13-8.62S211.09,57.09,184.88,73.55Z"/><path class="cls-12" d="M230.77,92.89c-7.05-5.22-24.11-15.67-37.16-6a6,6,0,0,0-2.32,3.26c-.74,3,.75,8.21,16.36,12.38l.32.09c1.68.55,18.11,5.67,24-1.33A5.74,5.74,0,0,0,230.77,92.89Z"/><ellipse class="cls-13" cx="212.89" cy="94.01" rx="9.6" ry="5.82" transform="translate(26.8 233.76) rotate(-60.73)"/><polyline class="cls-14" points="173.99 84.52 174.63 110.77 183.73 110.77"/><path class="cls-15" d="M207.83,130.76s-8.46-15.68-38.89-11c0,0-35.51-11-37.2,11,0,0-2.63,7.31,9.11,8.86a17.5,17.5,0,0,0,14.35-5c2.89-2.77,11-4.11,33.18,5.49C188.38,140.16,211.21,142.51,207.83,130.76Z"/><path class="cls-14" d="M207,124.49s12.68,9.2,5.07,11.26"/><path class="cls-14" d="M129.11,127.74s-3.48,6.42,3.56,15.79"/><line class="cls-12" x1="203.18" y1="125.66" x2="201.83" y2="139.32"/><line class="cls-12" x1="199.06" y1="123.07" x2="197.92" y2="140.55"/><line class="cls-12" x1="193.99" y1="120.72" x2="192.84" y2="140.55"/><line class="cls-12" x1="188.92" y1="119.93" x2="187.77" y2="139.77"/><line class="cls-12" x1="184.69" y1="119.15" x2="183.54" y2="137.42"/><line class="cls-12" x1="180.46" y1="119.15" x2="179.32" y2="136.64"/><line class="cls-12" x1="176.24" y1="119.15" x2="175.09" y2="135.07"/><line class="cls-12" x1="172.01" y1="119.39" x2="170.86" y2="132.72"/><line class="cls-12" x1="166.94" y1="119.15" x2="165.79" y2="132.72"/><line class="cls-12" x1="162.71" y1="119.39" x2="161.56" y2="132.72"/><line class="cls-12" x1="159.33" y1="117.58" x2="158.18" y2="132.72"/><line class="cls-12" x1="155.95" y1="117.58" x2="154.8" y2="134.28"/><line class="cls-12" x1="151.72" y1="116.26" x2="150.57" y2="138.2"/><line class="cls-12" x1="147.49" y1="117.04" x2="146.35" y2="138.99"/><line class="cls-12" x1="143.27" y1="117.83" x2="142.12" y2="139.77"/><line class="cls-12" x1="138.19" y1="120.18" x2="137.05" y2="138.99"/><path class="cls-12" d="M123.52,91c8.32-5.55,23.74-13.16,35.5-3.36,0,0,8.45,8.62-15.22,14.89,0,0-9.22,3.14-16.73,2.19C119.79,103.81,117.56,95,123.52,91Z"/><ellipse class="cls-13" cx="138.74" cy="94.01" rx="5.82" ry="9.6" transform="translate(-28.25 79.83) rotate(-29.27)"/><path class="cls-11" d="M167.25,70.41,161.33,79s-1.69-4.7-21.14-8.62S141,54,167.25,70.41Z"/><path class="cls-12" d="M201.17,42.81s1,11.61-8.63,17.31"/><path class="cls-16" d="M246.29,83.74S155.62,50,114.41,76.68c0,0,19.78-47,77.48-42.32C191.89,34.36,237.23,26.53,246.29,83.74Z"/><polygon class="cls-2" points="206.14 57.09 174.86 54.74 174.86 61.01 206.14 64.14 206.14 57.09"/><path class="cls-10" d="M196,42.2s4.23,11-3.38,18.81"/><path class="cls-10" d="M192.61,47.69s-5.92.78-5.07,11"/><path class="cls-17" d="M184.16,50s.84,6.27-2.54,8.62"/><path class="cls-17" d="M179.93,49.25a7.53,7.53,0,0,1-.85,9.41"/><path class="cls-10" d="M181.62,43s-5.92,10.19-4.23,16.46"/><path class="cls-10" d="M217.13,46.12S207.83,50,203.6,62.58"/><path class="cls-10" d="M207.83,46.12s0,7.83-9.3,13.32"/><path class="cls-16" d="M113.9,390c4.54,9.7,4.54,10.55,9.73,20.67-13.62-.42-26.6-.42-28.55,5.07-1.94,5.9,30.5,6.32,65.54,3.37,4.54-11.81,5.84-14.77,10.38-28.27C142.45,390.42,135.31,390.42,113.9,390Z"/><path class="cls-16" d="M188.87,390.33c.77,15.94,3.17,22.95,7.35,34.62,17.71,1.05-.49.39,35.9,3.12,1.74-2.82,3.48-4.23,5.51-13,1-8.93,2.23-14.26,3.26-23.65C214.35,390.79,209.64,391,188.87,390.33Z"/><path class="cls-20" d="M246,400c-16.49-.64-37.65,8.62-51,25.24,2.77,7.45,20.23,5.53,43,4.89C252.92,412.89,253,402.47,246,400Z"/></g></svg>
